<svg xmlns="http://www.w3.org/2000/svg" xmlns:xlink="http://www.w3.org/1999/xlink" width="500" zoomAndPan="magnify" viewBox="0 0 375 374.999991" height="500" preserveAspectRatio="xMidYMid meet" version="1.0"><defs><clipPath id="cf7d82872a"><path d="M 23.796875 20.753906 L 348.09375 20.753906 L 348.09375 345.050781 L 23.796875 345.050781 Z M 23.796875 20.753906 " clip-rule="nonzero"/></clipPath><clipPath id="6ce3e76d40"><path d="M 185.945312 20.753906 C 96.394531 20.753906 23.796875 93.351562 23.796875 182.902344 C 23.796875 272.453125 96.394531 345.050781 185.945312 345.050781 C 275.496094 345.050781 348.09375 272.453125 348.09375 182.902344 C 348.09375 93.351562 275.496094 20.753906 185.945312 20.753906 Z M 185.945312 20.753906 " clip-rule="nonzero"/></clipPath><clipPath id="88566900c5"><path d="M 20 20 L 351 20 L 351 349 L 20 349 Z M 20 20 " clip-rule="nonzero"/></clipPath><clipPath id="82e382ef05"><path d="M 247.433594 419.273438 L -53.136719 254.542969 L 110.511719 -44.054688 L 411.082031 120.675781 Z M 247.433594 419.273438 " clip-rule="nonzero"/></clipPath><clipPath id="7e09b25679"><path d="M 247.433594 419.273438 L -53.136719 254.542969 L 110.511719 -44.054688 L 411.082031 120.675781 Z M 247.433594 419.273438 " clip-rule="nonzero"/></clipPath><clipPath id="30d7450f66"><path d="M 247.433594 419.273438 L -53.136719 254.542969 L 110.511719 -44.054688 L 411.082031 120.675781 Z M 247.433594 419.273438 " clip-rule="nonzero"/></clipPath><clipPath id="fc739df5f8"><path d="M 4 138 L 40 138 L 40 297 L 4 297 Z M 4 138 " clip-rule="nonzero"/></clipPath><clipPath id="7892e0f159"><path d="M 247.433594 419.273438 L -53.136719 254.542969 L 110.511719 -44.054688 L 411.082031 120.675781 Z M 247.433594 419.273438 " clip-rule="nonzero"/></clipPath><clipPath id="42c79bba58"><path d="M 247.433594 419.273438 L -53.136719 254.542969 L 110.511719 -44.054688 L 411.082031 120.675781 Z M 247.433594 419.273438 " clip-rule="nonzero"/></clipPath><clipPath id="11cf7205b9"><path d="M 247.433594 419.273438 L -53.136719 254.542969 L 110.511719 -44.054688 L 411.082031 120.675781 Z M 247.433594 419.273438 " clip-rule="nonzero"/></clipPath><clipPath id="5453259267"><path d="M 47 39 L 75 39 L 75 73 L 47 73 Z M 47 39 " clip-rule="nonzero"/></clipPath><clipPath id="d2930f8bfe"><path d="M 247.433594 419.273438 L -53.136719 254.542969 L 110.511719 -44.054688 L 411.082031 120.675781 Z M 247.433594 419.273438 " clip-rule="nonzero"/></clipPath><clipPath id="c44ace53b4"><path d="M 247.433594 419.273438 L -53.136719 254.542969 L 110.511719 -44.054688 L 411.082031 120.675781 Z M 247.433594 419.273438 " clip-rule="nonzero"/></clipPath><clipPath id="13f934c289"><path d="M 247.433594 419.273438 L -53.136719 254.542969 L 110.511719 -44.054688 L 411.082031 120.675781 Z M 247.433594 419.273438 " clip-rule="nonzero"/></clipPath><clipPath id="3cd0faab23"><path d="M 85 25 L 120 25 L 120 46 L 85 46 Z M 85 25 " clip-rule="nonzero"/></clipPath><clipPath id="fba943923e"><path d="M 247.433594 419.273438 L -53.136719 254.542969 L 110.511719 -44.054688 L 411.082031 120.675781 Z M 247.433594 419.273438 " clip-rule="nonzero"/></clipPath><clipPath id="917d84291d"><path d="M 247.433594 419.273438 L -53.136719 254.542969 L 110.511719 -44.054688 L 411.082031 120.675781 Z M 247.433594 419.273438 " clip-rule="nonzero"/></clipPath><clipPath id="dd7705ef97"><path d="M 247.433594 419.273438 L -53.136719 254.542969 L 110.511719 -44.054688 L 411.082031 120.675781 Z M 247.433594 419.273438 " clip-rule="nonzero"/></clipPath><clipPath id="b11c1b3edb"><path d="M 130 13 L 155 13 L 155 22 L 130 22 Z M 130 13 " clip-rule="nonzero"/></clipPath><clipPath id="23d110f4e2"><path d="M 247.433594 419.273438 L -53.136719 254.542969 L 110.511719 -44.054688 L 411.082031 120.675781 Z M 247.433594 419.273438 " clip-rule="nonzero"/></clipPath><clipPath id="42364a7a04"><path d="M 247.433594 419.273438 L -53.136719 254.542969 L 110.511719 -44.054688 L 411.082031 120.675781 Z M 247.433594 419.273438 " clip-rule="nonzero"/></clipPath><clipPath id="79ccdaa61d"><path d="M 247.433594 419.273438 L -53.136719 254.542969 L 110.511719 -44.054688 L 411.082031 120.675781 Z M 247.433594 419.273438 " clip-rule="nonzero"/></clipPath><clipPath id="8dfc1cc2a4"><path d="M 51 59 L 67 59 L 67 74 L 51 74 Z M 51 59 " clip-rule="nonzero"/></clipPath><clipPath id="14227847a2"><path d="M 247.433594 419.273438 L -53.136719 254.542969 L 110.511719 -44.054688 L 411.082031 120.675781 Z M 247.433594 419.273438 " clip-rule="nonzero"/></clipPath><clipPath id="a3eeae1f30"><path d="M 247.433594 419.273438 L -53.136719 254.542969 L 110.511719 -44.054688 L 411.082031 120.675781 Z M 247.433594 419.273438 " clip-rule="nonzero"/></clipPath><clipPath id="9ec57134a3"><path d="M 247.433594 419.273438 L -53.136719 254.542969 L 110.511719 -44.054688 L 411.082031 120.675781 Z M 247.433594 419.273438 " clip-rule="nonzero"/></clipPath><clipPath id="f46f12cee9"><path d="M 34 79 L 49 79 L 49 101 L 34 101 Z M 34 79 " clip-rule="nonzero"/></clipPath><clipPath id="dba03bcc94"><path d="M 247.433594 419.273438 L -53.136719 254.542969 L 110.511719 -44.054688 L 411.082031 120.675781 Z M 247.433594 419.273438 " clip-rule="nonzero"/></clipPath><clipPath id="d0142ed0ce"><path d="M 247.433594 419.273438 L -53.136719 254.542969 L 110.511719 -44.054688 L 411.082031 120.675781 Z M 247.433594 419.273438 " clip-rule="nonzero"/></clipPath><clipPath id="7eddccf864"><path d="M 247.433594 419.273438 L -53.136719 254.542969 L 110.511719 -44.054688 L 411.082031 120.675781 Z M 247.433594 419.273438 " clip-rule="nonzero"/></clipPath><clipPath id="c84738a1f5"><path d="M 105 27 L 122 27 L 122 36 L 105 36 Z M 105 27 " clip-rule="nonzero"/></clipPath><clipPath id="d1434a0d72"><path d="M 247.433594 419.273438 L -53.136719 254.542969 L 110.511719 -44.054688 L 411.082031 120.675781 Z M 247.433594 419.273438 " clip-rule="nonzero"/></clipPath><clipPath id="82db4d4629"><path d="M 247.433594 419.273438 L -53.136719 254.542969 L 110.511719 -44.054688 L 411.082031 120.675781 Z M 247.433594 419.273438 " clip-rule="nonzero"/></clipPath><clipPath id="5c5316dc1a"><path d="M 247.433594 419.273438 L -53.136719 254.542969 L 110.511719 -44.054688 L 411.082031 120.675781 Z M 247.433594 419.273438 " clip-rule="nonzero"/></clipPath><clipPath id="2da7e2f5f2"><path d="M 217 363 L 237 363 L 237 368 L 217 368 Z M 217 363 " clip-rule="nonzero"/></clipPath><clipPath id="94d1acbd0a"><path d="M 247.433594 419.273438 L -53.136719 254.542969 L 110.511719 -44.054688 L 411.082031 120.675781 Z M 247.433594 419.273438 " clip-rule="nonzero"/></clipPath><clipPath id="28b1a96f2a"><path d="M 247.433594 419.273438 L -53.136719 254.542969 L 110.511719 -44.054688 L 411.082031 120.675781 Z M 247.433594 419.273438 " clip-rule="nonzero"/></clipPath><clipPath id="beb9260a11"><path d="M 247.433594 419.273438 L -53.136719 254.542969 L 110.511719 -44.054688 L 411.082031 120.675781 Z M 247.433594 419.273438 " clip-rule="nonzero"/></clipPath><clipPath id="9a27405ed2"><path d="M 15 159 L 17 159 L 17 169 L 15 169 Z M 15 159 " clip-rule="nonzero"/></clipPath><clipPath id="f6c2a7a2ae"><path d="M 247.433594 419.273438 L -53.136719 254.542969 L 110.511719 -44.054688 L 411.082031 120.675781 Z M 247.433594 419.273438 " clip-rule="nonzero"/></clipPath><clipPath id="0f8b723a55"><path d="M 247.433594 419.273438 L -53.136719 254.542969 L 110.511719 -44.054688 L 411.082031 120.675781 Z M 247.433594 419.273438 " clip-rule="nonzero"/></clipPath><clipPath id="e8d8ece6ee"><path d="M 247.433594 419.273438 L -53.136719 254.542969 L 110.511719 -44.054688 L 411.082031 120.675781 Z M 247.433594 419.273438 " clip-rule="nonzero"/></clipPath><clipPath id="c0fb60187d"><path d="M 98 22 L 103 22 L 103 25 L 98 25 Z M 98 22 " clip-rule="nonzero"/></clipPath><clipPath id="6e2a8f4157"><path d="M 247.433594 419.273438 L -53.136719 254.542969 L 110.511719 -44.054688 L 411.082031 120.675781 Z M 247.433594 419.273438 " clip-rule="nonzero"/></clipPath><clipPath id="e060eb806b"><path d="M 247.433594 419.273438 L -53.136719 254.542969 L 110.511719 -44.054688 L 411.082031 120.675781 Z M 247.433594 419.273438 " clip-rule="nonzero"/></clipPath><clipPath id="55349df1df"><path d="M 247.433594 419.273438 L -53.136719 254.542969 L 110.511719 -44.054688 L 411.082031 120.675781 Z M 247.433594 419.273438 " clip-rule="nonzero"/></clipPath><clipPath id="797db1ce20"><path d="M 22 134 L 24 134 L 24 141 L 22 141 Z M 22 134 " clip-rule="nonzero"/></clipPath><clipPath id="26955b0e4a"><path d="M 247.433594 419.273438 L -53.136719 254.542969 L 110.511719 -44.054688 L 411.082031 120.675781 Z M 247.433594 419.273438 " clip-rule="nonzero"/></clipPath><clipPath id="66c6ecf4c8"><path d="M 247.433594 419.273438 L -53.136719 254.542969 L 110.511719 -44.054688 L 411.082031 120.675781 Z M 247.433594 419.273438 " clip-rule="nonzero"/></clipPath><clipPath id="42f0fbb9bb"><path d="M 247.433594 419.273438 L -53.136719 254.542969 L 110.511719 -44.054688 L 411.082031 120.675781 Z M 247.433594 419.273438 " clip-rule="nonzero"/></clipPath><clipPath id="50b1bfcf44"><path d="M 48 85 L 51 85 L 51 89 L 48 89 Z M 48 85 " clip-rule="nonzero"/></clipPath><clipPath id="a71d793cb6"><path d="M 247.433594 419.273438 L -53.136719 254.542969 L 110.511719 -44.054688 L 411.082031 120.675781 Z M 247.433594 419.273438 " clip-rule="nonzero"/></clipPath><clipPath id="590186cadd"><path d="M 247.433594 419.273438 L -53.136719 254.542969 L 110.511719 -44.054688 L 411.082031 120.675781 Z M 247.433594 419.273438 " clip-rule="nonzero"/></clipPath><clipPath id="da12757de0"><path d="M 247.433594 419.273438 L -53.136719 254.542969 L 110.511719 -44.054688 L 411.082031 120.675781 Z M 247.433594 419.273438 " clip-rule="nonzero"/></clipPath><clipPath id="6839e8a781"><path d="M 82 327 L 86 327 L 86 331 L 82 331 Z M 82 327 " clip-rule="nonzero"/></clipPath><clipPath id="65a7ff5121"><path d="M 247.433594 419.273438 L -53.136719 254.542969 L 110.511719 -44.054688 L 411.082031 120.675781 Z M 247.433594 419.273438 " clip-rule="nonzero"/></clipPath><clipPath id="17438ed86d"><path d="M 247.433594 419.273438 L -53.136719 254.542969 L 110.511719 -44.054688 L 411.082031 120.675781 Z M 247.433594 419.273438 " clip-rule="nonzero"/></clipPath><clipPath id="cd29169546"><path d="M 247.433594 419.273438 L -53.136719 254.542969 L 110.511719 -44.054688 L 411.082031 120.675781 Z M 247.433594 419.273438 " clip-rule="nonzero"/></clipPath><clipPath id="cc5784629b"><path d="M 272 348 L 277 348 L 277 351 L 272 351 Z M 272 348 " clip-rule="nonzero"/></clipPath><clipPath id="1314dba852"><path d="M 247.433594 419.273438 L -53.136719 254.542969 L 110.511719 -44.054688 L 411.082031 120.675781 Z M 247.433594 419.273438 " clip-rule="nonzero"/></clipPath><clipPath id="8784cd7c29"><path d="M 247.433594 419.273438 L -53.136719 254.542969 L 110.511719 -44.054688 L 411.082031 120.675781 Z M 247.433594 419.273438 " clip-rule="nonzero"/></clipPath><clipPath id="01d12e57fb"><path d="M 247.433594 419.273438 L -53.136719 254.542969 L 110.511719 -44.054688 L 411.082031 120.675781 Z M 247.433594 419.273438 " clip-rule="nonzero"/></clipPath><clipPath id="43c30043fa"><path d="M 95 30 L 99 30 L 99 32 L 95 32 Z M 95 30 " clip-rule="nonzero"/></clipPath><clipPath id="7a359ebf57"><path d="M 247.433594 419.273438 L -53.136719 254.542969 L 110.511719 -44.054688 L 411.082031 120.675781 Z M 247.433594 419.273438 " clip-rule="nonzero"/></clipPath><clipPath id="79d3fc85f8"><path d="M 247.433594 419.273438 L -53.136719 254.542969 L 110.511719 -44.054688 L 411.082031 120.675781 Z M 247.433594 419.273438 " clip-rule="nonzero"/></clipPath><clipPath id="de905e0499"><path d="M 247.433594 419.273438 L -53.136719 254.542969 L 110.511719 -44.054688 L 411.082031 120.675781 Z M 247.433594 419.273438 " clip-rule="nonzero"/></clipPath><clipPath id="6ba1564431"><path d="M 44 106 L 46 106 L 46 108 L 44 108 Z M 44 106 " clip-rule="nonzero"/></clipPath><clipPath id="4c2feb2df7"><path d="M 247.433594 419.273438 L -53.136719 254.542969 L 110.511719 -44.054688 L 411.082031 120.675781 Z M 247.433594 419.273438 " clip-rule="nonzero"/></clipPath><clipPath id="957e4a282a"><path d="M 247.433594 419.273438 L -53.136719 254.542969 L 110.511719 -44.054688 L 411.082031 120.675781 Z M 247.433594 419.273438 " clip-rule="nonzero"/></clipPath><clipPath id="10072a5ec1"><path d="M 247.433594 419.273438 L -53.136719 254.542969 L 110.511719 -44.054688 L 411.082031 120.675781 Z M 247.433594 419.273438 " clip-rule="nonzero"/></clipPath><clipPath id="c71d867fed"><path d="M 9 167 L 10 167 L 10 171 L 9 171 Z M 9 167 " clip-rule="nonzero"/></clipPath><clipPath id="3682a876c3"><path d="M 247.433594 419.273438 L -53.136719 254.542969 L 110.511719 -44.054688 L 411.082031 120.675781 Z M 247.433594 419.273438 " clip-rule="nonzero"/></clipPath><clipPath id="fbf3f5f723"><path d="M 247.433594 419.273438 L -53.136719 254.542969 L 110.511719 -44.054688 L 411.082031 120.675781 Z M 247.433594 419.273438 " clip-rule="nonzero"/></clipPath><clipPath id="14901dc52b"><path d="M 247.433594 419.273438 L -53.136719 254.542969 L 110.511719 -44.054688 L 411.082031 120.675781 Z M 247.433594 419.273438 " clip-rule="nonzero"/></clipPath><clipPath id="ea085ce8b5"><path d="M 37 128 L 39 128 L 39 132 L 37 132 Z M 37 128 " clip-rule="nonzero"/></clipPath><clipPath id="f432adebde"><path d="M 247.433594 419.273438 L -53.136719 254.542969 L 110.511719 -44.054688 L 411.082031 120.675781 Z M 247.433594 419.273438 " clip-rule="nonzero"/></clipPath><clipPath id="bc38c52f6f"><path d="M 247.433594 419.273438 L -53.136719 254.542969 L 110.511719 -44.054688 L 411.082031 120.675781 Z M 247.433594 419.273438 " clip-rule="nonzero"/></clipPath><clipPath id="9b15a7421c"><path d="M 247.433594 419.273438 L -53.136719 254.542969 L 110.511719 -44.054688 L 411.082031 120.675781 Z M 247.433594 419.273438 " clip-rule="nonzero"/></clipPath><clipPath id="e59e34731f"><path d="M 110 35 L 113 35 L 113 36 L 110 36 Z M 110 35 " clip-rule="nonzero"/></clipPath><clipPath id="be183b3c14"><path d="M 247.433594 419.273438 L -53.136719 254.542969 L 110.511719 -44.054688 L 411.082031 120.675781 Z M 247.433594 419.273438 " clip-rule="nonzero"/></clipPath><clipPath id="f68e82d351"><path d="M 247.433594 419.273438 L -53.136719 254.542969 L 110.511719 -44.054688 L 411.082031 120.675781 Z M 247.433594 419.273438 " clip-rule="nonzero"/></clipPath><clipPath id="3a83f7c9c7"><path d="M 247.433594 419.273438 L -53.136719 254.542969 L 110.511719 -44.054688 L 411.082031 120.675781 Z M 247.433594 419.273438 " clip-rule="nonzero"/></clipPath><clipPath id="b5acd82b90"><path d="M 8 200 L 10 200 L 10 202 L 8 202 Z M 8 200 " clip-rule="nonzero"/></clipPath><clipPath id="34eadea785"><path d="M 247.433594 419.273438 L -53.136719 254.542969 L 110.511719 -44.054688 L 411.082031 120.675781 Z M 247.433594 419.273438 " clip-rule="nonzero"/></clipPath><clipPath id="2ab6971d00"><path d="M 247.433594 419.273438 L -53.136719 254.542969 L 110.511719 -44.054688 L 411.082031 120.675781 Z M 247.433594 419.273438 " clip-rule="nonzero"/></clipPath><clipPath id="7ea7aed0cf"><path d="M 247.433594 419.273438 L -53.136719 254.542969 L 110.511719 -44.054688 L 411.082031 120.675781 Z M 247.433594 419.273438 " clip-rule="nonzero"/></clipPath><clipPath id="ad8fb96442"><path d="M 324 102 L 326 102 L 326 105 L 324 105 Z M 324 102 " clip-rule="nonzero"/></clipPath><clipPath id="f8653aa8dc"><path d="M 247.433594 419.273438 L -53.136719 254.542969 L 110.511719 -44.054688 L 411.082031 120.675781 Z M 247.433594 419.273438 " clip-rule="nonzero"/></clipPath><clipPath id="9a2e22f0b5"><path d="M 247.433594 419.273438 L -53.136719 254.542969 L 110.511719 -44.054688 L 411.082031 120.675781 Z M 247.433594 419.273438 " clip-rule="nonzero"/></clipPath><clipPath id="6b6b0eaf18"><path d="M 247.433594 419.273438 L -53.136719 254.542969 L 110.511719 -44.054688 L 411.082031 120.675781 Z M 247.433594 419.273438 " clip-rule="nonzero"/></clipPath><clipPath id="b13977f098"><path d="M 260 90 L 348 90 L 348 147 L 260 147 Z M 260 90 " clip-rule="nonzero"/></clipPath><clipPath id="4c19159c7d"><path d="M 117.441406 77.671875 L 379.554688 95.914062 L 366.96875 276.773438 L 104.855469 258.53125 Z M 117.441406 77.671875 " clip-rule="nonzero"/></clipPath><clipPath id="b8b307cf25"><path d="M 117.441406 77.671875 L 379.554688 95.914062 L 366.96875 276.773438 L 104.855469 258.53125 Z M 117.441406 77.671875 " clip-rule="nonzero"/></clipPath><clipPath id="62e606b778"><path d="M 237 126 L 371 126 L 371 248 L 237 248 Z M 237 126 " clip-rule="nonzero"/></clipPath><clipPath id="d86fb8403d"><path d="M 117.441406 77.671875 L 379.554688 95.914062 L 366.96875 276.773438 L 104.855469 258.53125 Z M 117.441406 77.671875 " clip-rule="nonzero"/></clipPath><clipPath id="d927393be8"><path d="M 117.441406 77.671875 L 379.554688 95.914062 L 366.96875 276.773438 L 104.855469 258.53125 Z M 117.441406 77.671875 " clip-rule="nonzero"/></clipPath><clipPath id="5001e5c772"><path d="M 257 135 L 365 135 L 365 236 L 257 236 Z M 257 135 " clip-rule="nonzero"/></clipPath><clipPath id="406fbc128d"><path d="M 117.441406 77.671875 L 379.554688 95.914062 L 366.96875 276.773438 L 104.855469 258.53125 Z M 117.441406 77.671875 " clip-rule="nonzero"/></clipPath><clipPath id="ae3b269aa0"><path d="M 117.441406 77.671875 L 379.554688 95.914062 L 366.96875 276.773438 L 104.855469 258.53125 Z M 117.441406 77.671875 " clip-rule="nonzero"/></clipPath><clipPath id="4905634ac3"><path d="M 359 163 L 368 163 L 368 223 L 359 223 Z M 359 163 " clip-rule="nonzero"/></clipPath><clipPath id="1f94272cb7"><path d="M 117.441406 77.671875 L 379.554688 95.914062 L 366.96875 276.773438 L 104.855469 258.53125 Z M 117.441406 77.671875 " clip-rule="nonzero"/></clipPath><clipPath id="886b41a85a"><path d="M 117.441406 77.671875 L 379.554688 95.914062 L 366.96875 276.773438 L 104.855469 258.53125 Z M 117.441406 77.671875 " clip-rule="nonzero"/></clipPath><clipPath id="6eeea6dffe"><path d="M 232 128 L 258 128 L 258 244 L 232 244 Z M 232 128 " clip-rule="nonzero"/></clipPath><clipPath id="6234d57148"><path d="M 117.441406 77.671875 L 379.554688 95.914062 L 366.96875 276.773438 L 104.855469 258.53125 Z M 117.441406 77.671875 " clip-rule="nonzero"/></clipPath><clipPath id="d25a82f691"><path d="M 117.441406 77.671875 L 379.554688 95.914062 L 366.96875 276.773438 L 104.855469 258.53125 Z M 117.441406 77.671875 " clip-rule="nonzero"/></clipPath><clipPath id="318d8e93b9"><path d="M 237 138 L 253 138 L 253 233 L 237 233 Z M 237 138 " clip-rule="nonzero"/></clipPath><clipPath id="378e1d0571"><path d="M 117.441406 77.671875 L 379.554688 95.914062 L 366.96875 276.773438 L 104.855469 258.53125 Z M 117.441406 77.671875 " clip-rule="nonzero"/></clipPath><clipPath id="d4fff45ed5"><path d="M 117.441406 77.671875 L 379.554688 95.914062 L 366.96875 276.773438 L 104.855469 258.53125 Z M 117.441406 77.671875 " clip-rule="nonzero"/></clipPath><clipPath id="d7c8495ed7"><path d="M 259 210 L 325 210 L 325 240 L 259 240 Z M 259 210 " clip-rule="nonzero"/></clipPath><clipPath id="e70fc5dfd1"><path d="M 117.441406 77.671875 L 379.554688 95.914062 L 366.96875 276.773438 L 104.855469 258.53125 Z M 117.441406 77.671875 " clip-rule="nonzero"/></clipPath><clipPath id="c9bdc633bb"><path d="M 117.441406 77.671875 L 379.554688 95.914062 L 366.96875 276.773438 L 104.855469 258.53125 Z M 117.441406 77.671875 " clip-rule="nonzero"/></clipPath><clipPath id="3e774fba2d"><path d="M 116 196 L 247 196 L 247 252 L 116 252 Z M 116 196 " clip-rule="nonzero"/></clipPath><clipPath id="6cddd48679"><path d="M 117.441406 77.671875 L 379.554688 95.914062 L 366.96875 276.773438 L 104.855469 258.53125 Z M 117.441406 77.671875 " clip-rule="nonzero"/></clipPath><clipPath id="c3edc3dc34"><path d="M 117.441406 77.671875 L 379.554688 95.914062 L 366.96875 276.773438 L 104.855469 258.53125 Z M 117.441406 77.671875 " clip-rule="nonzero"/></clipPath><clipPath id="098090f9b4"><path d="M 136 180 L 168 180 L 168 202 L 136 202 Z M 136 180 " clip-rule="nonzero"/></clipPath><clipPath id="489176d19b"><path d="M 117.441406 77.671875 L 379.554688 95.914062 L 366.96875 276.773438 L 104.855469 258.53125 Z M 117.441406 77.671875 " clip-rule="nonzero"/></clipPath><clipPath id="45837573d2"><path d="M 117.441406 77.671875 L 379.554688 95.914062 L 366.96875 276.773438 L 104.855469 258.53125 Z M 117.441406 77.671875 " clip-rule="nonzero"/></clipPath><clipPath id="7e85060e7c"><path d="M 169 186 L 195 186 L 195 203 L 169 203 Z M 169 186 " clip-rule="nonzero"/></clipPath><clipPath id="c3b4c19ad5"><path d="M 117.441406 77.671875 L 379.554688 95.914062 L 366.96875 276.773438 L 104.855469 258.53125 Z M 117.441406 77.671875 " clip-rule="nonzero"/></clipPath><clipPath id="3fff432691"><path d="M 117.441406 77.671875 L 379.554688 95.914062 L 366.96875 276.773438 L 104.855469 258.53125 Z M 117.441406 77.671875 " clip-rule="nonzero"/></clipPath><clipPath id="60387818b1"><path d="M 186 179 L 198 179 L 198 186 L 186 186 Z M 186 179 " clip-rule="nonzero"/></clipPath><clipPath id="438fc9af64"><path d="M 117.441406 77.671875 L 379.554688 95.914062 L 366.96875 276.773438 L 104.855469 258.53125 Z M 117.441406 77.671875 " clip-rule="nonzero"/></clipPath><clipPath id="0b86185f4b"><path d="M 117.441406 77.671875 L 379.554688 95.914062 L 366.96875 276.773438 L 104.855469 258.53125 Z M 117.441406 77.671875 " clip-rule="nonzero"/></clipPath><clipPath id="8f43051171"><path d="M 177 179 L 184 179 L 184 187 L 177 187 Z M 177 179 " clip-rule="nonzero"/></clipPath><clipPath id="43e9bc932a"><path d="M 117.441406 77.671875 L 379.554688 95.914062 L 366.96875 276.773438 L 104.855469 258.53125 Z M 117.441406 77.671875 " clip-rule="nonzero"/></clipPath><clipPath id="34d2e4b7d6"><path d="M 117.441406 77.671875 L 379.554688 95.914062 L 366.96875 276.773438 L 104.855469 258.53125 Z M 117.441406 77.671875 " clip-rule="nonzero"/></clipPath></defs><g clip-path="url(#cf7d82872a)"><g clip-path="url(#6ce3e76d40)"><path fill="#b4a4d5" d="M 23.796875 20.753906 L 348.09375 20.753906 L 348.09375 345.050781 L 23.796875 345.050781 Z M 23.796875 20.753906 " fill-opacity="1" fill-rule="nonzero"/></g></g><g clip-path="url(#88566900c5)"><g clip-path="url(#82e382ef05)"><g clip-path="url(#7e09b25679)"><g clip-path="url(#30d7450f66)"><path fill="#231f20" d="M 343.496094 224.265625 L 343.664062 224.230469 L 343.953125 222.8125 Z M 30.765625 124.703125 C 31.507812 123.421875 31.867188 123.558594 31.367188 125.386719 C 30.660156 127.953125 29.976562 130.601562 28.996094 133.527344 C 27.4375 139.214844 26.203125 145.234375 24.726562 151.136719 C 21.695312 167.882812 21.132812 185 22.867188 201.980469 L 24.597656 214.113281 L 27.535156 226.023438 C 28.207031 229.335938 29.5 232.476562 30.660156 235.535156 C 31.890625 238.785156 33.046875 241.6875 34.039062 243.886719 C 35.15625 246.039062 36.21875 247.445312 36.835938 247.882812 C 37.742188 248.480469 39.351562 251.230469 41.53125 255.714844 C 48.539062 268.160156 56.320312 280.1875 66.523438 291.035156 L 70.453125 295.433594 L 74.832031 299.371094 C 76.105469 300.507812 77.558594 301.414062 77.015625 300.71875 C 76.566406 300.144531 75.949219 299.398438 75.171875 298.609375 C 73.878906 297.332031 72.441406 295.910156 71.058594 294.550781 C 61.226562 283.726562 52.523438 272.097656 46.042969 259.242188 C 43.003906 253.480469 40.566406 247.367188 38.027344 241.328125 C 36.421875 236.273438 34.578125 231.425781 33.574219 226.792969 C 32.976562 223.324219 32.011719 219.40625 31.109375 215.5625 C 29.867188 209.824219 29.464844 203.949219 28.566406 198.171875 C 28.472656 192.320312 27.960938 186.476562 28.175781 180.644531 C 28.203125 180.238281 28.324219 179.679688 28.386719 179.621094 C 28.449219 179.5625 28.550781 179.949219 28.539062 180.257812 C 28.339844 185.398438 29.105469 190.574219 29.179688 195.699219 C 30.03125 205.53125 31.746094 215.085938 34.429688 224.40625 C 34.882812 226.285156 35.355469 228.214844 36.058594 230.027344 C 40.671875 246.34375 48.625 261.585938 58.265625 275.460938 C 60.535156 278.636719 62.644531 282.011719 65.195312 284.800781 C 73.679688 296.113281 84.78125 305.492188 96.390625 314.140625 C 109.117188 322.277344 122.484375 329.675781 136.945312 334.191406 C 160.585938 342.386719 186.210938 343.824219 210.816406 340.230469 C 227.636719 337.625 244.089844 332.445312 259.421875 324.945312 C 275.164062 316.964844 289.585938 306.199219 301.886719 293.476562 C 304.121094 291.078125 306.476562 288.785156 308.648438 286.34375 L 314.703125 278.636719 C 325.667969 263.855469 334.242188 247.210938 339.757812 229.59375 C 340.550781 226.40625 341.355469 223.183594 342.144531 220.011719 C 345.296875 205.230469 347.035156 190.136719 346.074219 174.957031 C 346.121094 170.386719 345.488281 165.808594 344.769531 161.226562 L 343.792969 154.335938 L 342.191406 147.570312 C 341.09375 143.082031 340.179688 138.539062 338.488281 134.226562 L 337.617188 131.21875 C 338.003906 132.097656 338.355469 132.90625 338.777344 133.871094 C 339.433594 135.5 340.128906 137.222656 340.808594 138.910156 L 340.632812 138.484375 C 341.972656 142.976562 343.183594 147.683594 344.449219 152.433594 C 345.46875 157.234375 346.039062 162.179688 346.886719 167.039062 C 347.234375 168.738281 347.429688 170.28125 347.609375 171.789062 C 347.640625 172.054688 347.753906 171.929688 347.792969 171.644531 C 347.835938 171.332031 347.863281 170.644531 347.84375 170.089844 C 347.359375 164.785156 346.453125 159.503906 345.824219 154.21875 C 344.519531 148.3125 343.210938 142.5 341.421875 136.785156 C 336.859375 122.96875 330.488281 109.820312 322.695312 97.5625 C 317.71875 90.582031 312.882812 83.5 307 77.875 C 304.578125 75.382812 301.894531 72.035156 298.863281 69.492188 L 291.582031 62.734375 C 289.148438 60.480469 286.335938 58.683594 283.746094 56.621094 C 278.628906 52.378906 272.882812 49.050781 267.230469 45.582031 C 253.433594 37.785156 238.757812 31.128906 223.257812 27.707031 C 218.515625 26.203125 213.605469 25.664062 208.734375 24.816406 C 203.875 23.8125 198.90625 23.613281 193.882812 23.4375 C 191.273438 23.394531 188.542969 23.023438 185.949219 23.117188 C 171.492188 23.066406 156.855469 25.105469 142.75 28.773438 C 126.074219 33.421875 110.375 40.4375 95.984375 49.523438 C 90.265625 53.375 84.605469 56.992188 79.621094 61.382812 C 74.265625 65.347656 69.652344 70.011719 64.945312 74.695312 C 60.632812 78.566406 57.84375 82.589844 55.195312 84.78125 C 52.601562 87.171875 51.492188 87.65625 53.480469 84.042969 C 54.238281 82.664062 55.066406 81.1875 55.421875 80.28125 C 56.164062 78.476562 57.167969 76.507812 58.875 74.289062 C 60.699219 72.171875 63.105469 69.691406 66.296875 66.5625 C 68.980469 63.722656 71.992188 61.191406 75.128906 58.703125 C 78.277344 56.246094 81.160156 53.371094 84.609375 51.0625 C 86.863281 49.535156 89.078125 48.035156 91.292969 46.535156 C 95.386719 43.78125 96.914062 43.207031 94.792969 45.230469 C 93.597656 46.347656 92.1875 47.664062 91.042969 48.738281 C 90.152344 49.601562 91.28125 49.382812 92.941406 48.339844 C 95.863281 46.359375 98.976562 44.6875 102.363281 42.953125 C 114.976562 35.242188 129.089844 30.140625 143.257812 26.097656 C 145.210938 25.632812 147.25 25.152344 149.171875 24.695312 C 166.953125 20.234375 185.226562 19.394531 203.234375 21.253906 C 225.957031 23.867188 248.042969 31.292969 267.949219 42.742188 L 278.285156 49.097656 C 294.390625 60.214844 308.445312 74.175781 319.644531 90.15625 C 324.03125 95.722656 327.140625 102.148438 330.8125 108.195312 C 332.472656 111.316406 333.804688 114.601562 335.332031 117.78125 C 336.855469 120.960938 338.355469 124.144531 339.40625 127.496094 C 346.390625 145.628906 349.894531 165.222656 350.222656 184.609375 C 350.273438 201.320312 347.691406 217.921875 343.714844 233.417969 C 341.609375 239.3125 340.042969 246.007812 337.101562 251.925781 C 336.015625 254.328125 334.824219 256.957031 333.832031 259.160156 C 329.429688 268.960938 323.210938 278.910156 316.128906 287.992188 C 313.484375 291.964844 310.011719 295.226562 306.90625 298.820312 C 303.84375 302.472656 300.378906 305.730469 296.738281 308.847656 C 286.78125 318.296875 274.894531 325.65625 262.816406 332.066406 C 249.199219 338.328125 235.113281 343.3125 220.4375 345.976562 C 213.804688 347.230469 207.027344 347.871094 200.28125 348.582031 C 183.683594 349.890625 167.949219 347.890625 152.402344 344.527344 C 148.585938 343.417969 144.835938 342.324219 141.183594 341.265625 C 124.777344 335.617188 108.410156 327.675781 93.402344 317.277344 C 91.273438 315.648438 89.066406 313.960938 86.988281 312.367188 L 81.332031 308.199219 C 79.542969 306.683594 77.859375 305.042969 76.117188 303.464844 C 72.703125 300.230469 69.023438 297.226562 66.058594 293.5 C 63.835938 290.953125 61.5 288.828125 61.203125 289 C 60.890625 289.183594 62.261719 291.265625 64.210938 293.683594 C 67.363281 297.964844 71.515625 301.507812 75.496094 305.261719 C 77.476562 307 79.183594 309.117188 81.300781 310.644531 C 83.136719 312.121094 83.820312 313.273438 82.253906 312.277344 C 80.460938 311.167969 78.535156 309.890625 76.773438 308.292969 C 75.890625 307.554688 74.722656 306.492188 73.789062 305.59375 C 71.40625 303.308594 69.039062 301.046875 66.683594 298.792969 L 60.234375 291.5 C 55.683594 286.863281 52.175781 281.433594 48.234375 276.289062 C 44.632812 271.410156 41.863281 265.683594 38.667969 260.402344 L 31.890625 245.355469 C 29.949219 239.375 27.78125 233.746094 26.496094 228.019531 C 25.710938 224.246094 24.898438 220.367188 24.074219 216.425781 C 23.222656 212.496094 22.988281 208.390625 22.375 204.339844 C 21.558594 199.597656 21.484375 194.757812 21.109375 190.171875 C 20.242188 183.355469 20.871094 176.898438 21.515625 170.355469 C 21.859375 164.992188 22.988281 160.1875 23.300781 154.925781 C 23.480469 151.035156 24.417969 147.125 25.234375 143.132812 C 26.15625 139.171875 26.636719 135.007812 28.050781 131.183594 C 28.683594 129.164062 29.992188 126.054688 30.765625 124.703125 " fill-opacity="1" fill-rule="nonzero"/></g></g></g></g><g clip-path="url(#fc739df5f8)"><g clip-path="url(#7892e0f159)"><g clip-path="url(#42c79bba58)"><g clip-path="url(#11cf7205b9)"><path fill="#231f20" d="M 33.242188 286.226562 C 29.019531 279.878906 26.097656 273.507812 23.488281 268.222656 C 21.589844 263.125 18.871094 257.042969 16.003906 250.609375 C 14.363281 246.121094 13.121094 242.292969 12.226562 238.695312 C 11.316406 235.535156 10.765625 232.011719 10.0625 228.144531 C 8.8125 221.550781 8.546875 218.386719 8.972656 217.035156 C 9.109375 216.648438 9.101562 215.207031 9.035156 213.738281 C 9.003906 213.027344 8.695312 211.085938 8.484375 209.746094 C 8.398438 209.179688 8.210938 208.398438 8.132812 208.261719 C 7.441406 206.707031 6.078125 203.1875 5.882812 195.671875 C 5.632812 188.882812 5.101562 182.3125 5.910156 175.929688 C 6.460938 171.039062 6.453125 166.160156 7.566406 161.332031 C 8.316406 157.183594 9.074219 153 9.847656 148.753906 C 10.234375 146.6875 10.9375 144.441406 11.398438 142.339844 C 11.679688 141.167969 11.960938 139.621094 11.960938 139.183594 C 11.964844 138.753906 11.667969 139.0625 11.414062 139.847656 C 10.535156 142.753906 9.351562 145.804688 8.679688 149.148438 C 7.570312 155.953125 5.652344 162.96875 5.273438 169.894531 C 4.539062 177.15625 3.855469 184.410156 4.160156 191.707031 C 3.933594 199.023438 4.773438 206.277344 5.578125 213.605469 C 5.847656 217.808594 7.003906 222.15625 7.875 226.441406 C 8.59375 229.632812 9.160156 232.867188 10.015625 236.027344 L 12.976562 245.433594 C 14.210938 249.671875 15.695312 253.824219 17.558594 257.839844 C 19.359375 261.875 20.898438 266.054688 22.949219 269.972656 L 23.082031 270.089844 C 26.839844 276.589844 30.050781 283.449219 34.613281 289.492188 C 35.894531 291.292969 37.214844 293.15625 38.519531 294.988281 C 38.855469 295.460938 39.554688 296.304688 39.558594 296.253906 C 39.574219 296.054688 39.664062 295.828125 39.222656 295.15625 C 37.304688 292.289062 35.289062 289.289062 33.242188 286.226562 " fill-opacity="1" fill-rule="nonzero"/></g></g></g></g><g clip-path="url(#5453259267)"><g clip-path="url(#d2930f8bfe)"><g clip-path="url(#c44ace53b4)"><g clip-path="url(#13f934c289)"><path fill="#231f20" d="M 49.628906 70.585938 C 53.570312 66.007812 58.164062 61.976562 62.445312 57.558594 C 63.75 56.117188 65.609375 54.644531 67.195312 53.183594 C 69.824219 50.855469 71.957031 48.539062 71.832031 48.167969 C 71.707031 47.785156 69.523438 49.171875 67.046875 51.238281 C 65.984375 52.148438 64.855469 53.117188 63.753906 54.0625 C 63.222656 54.5625 62.628906 55.015625 62.152344 55.5625 C 58.320312 59.574219 56.777344 60.707031 58.195312 58.523438 C 59.441406 56.734375 60.929688 54.300781 63.632812 51.773438 C 67.566406 47.832031 70.671875 44.496094 72.738281 41.9375 C 74.355469 39.925781 75.296875 38.859375 73.328125 39.589844 C 72.621094 39.820312 70.988281 41.105469 69.550781 42.253906 C 68.144531 43.417969 66.203125 45.210938 64.988281 46.414062 C 62.628906 48.746094 61.777344 49.945312 61.574219 50.609375 C 61.367188 51.421875 60.839844 52.183594 58.507812 55.195312 C 52.109375 63.320312 50.1875 66.539062 47.546875 72.0625 C 46.953125 73.210938 48.199219 72.304688 49.628906 70.585938 " fill-opacity="1" fill-rule="nonzero"/></g></g></g></g><g clip-path="url(#3cd0faab23)"><g clip-path="url(#fba943923e)"><g clip-path="url(#917d84291d)"><g clip-path="url(#dd7705ef97)"><path fill="#231f20" d="M 94.484375 40.453125 C 98.292969 37.972656 99.832031 36.539062 102.402344 34.628906 C 104.542969 33.148438 107.171875 31.199219 110.351562 30.097656 C 111.859375 29.476562 113.058594 28.984375 114.304688 28.472656 C 114.878906 28.210938 115.671875 27.847656 116.136719 27.636719 C 117.140625 27.109375 118.605469 26.359375 118.785156 26.160156 C 120.320312 24.515625 114.960938 25.660156 107.949219 28.546875 C 106.527344 29.027344 104.230469 30.667969 103.214844 31.339844 C 102.109375 32.132812 101.972656 32.492188 101.519531 32.988281 C 100.707031 33.875 98.90625 35.207031 95.847656 37.113281 C 92.953125 38.742188 90.375 40.964844 87.84375 42.890625 C 86.945312 43.59375 86.140625 44.34375 85.882812 44.683594 C 84.851562 46.027344 85.484375 46.171875 88.191406 44.777344 C 89.417969 44.164062 92.734375 41.796875 94.484375 40.453125 " fill-opacity="1" fill-rule="nonzero"/></g></g></g></g><g clip-path="url(#b11c1b3edb)"><g clip-path="url(#23d110f4e2)"><g clip-path="url(#42364a7a04)"><g clip-path="url(#79ccdaa61d)"><path fill="#231f20" d="M 139.164062 18.921875 C 147.671875 16.582031 152.273438 14.730469 154.585938 13.371094 C 154.792969 13.21875 153.144531 13.335938 152.609375 13.496094 C 147.855469 14.71875 143.171875 15.925781 138.414062 17.152344 C 133.335938 18.871094 131.929688 19.808594 131.046875 20.542969 C 130.957031 20.734375 130.800781 20.941406 130.800781 21.09375 C 130.796875 21.644531 134.847656 20.445312 139.164062 18.921875 " fill-opacity="1" fill-rule="nonzero"/></g></g></g></g><g clip-path="url(#8dfc1cc2a4)"><g clip-path="url(#14227847a2)"><g clip-path="url(#a3eeae1f30)"><g clip-path="url(#9ec57134a3)"><path fill="#231f20" d="M 52 72.425781 C 51.914062 72.875 51.730469 73.480469 52.144531 73.25 C 53.574219 72.324219 56.640625 69.839844 60.777344 66.160156 C 61.46875 65.539062 62.785156 64.199219 63.464844 63.410156 C 64.578125 62.046875 65.488281 60.921875 66.273438 59.957031 C 66.253906 59.6875 66.484375 59.222656 66.191406 59.351562 C 64.390625 60.132812 61.148438 62.660156 56.367188 67.058594 C 54.765625 68.425781 52.027344 71.765625 52 72.425781 " fill-opacity="1" fill-rule="nonzero"/></g></g></g></g><g clip-path="url(#f46f12cee9)"><g clip-path="url(#dba03bcc94)"><g clip-path="url(#d0142ed0ce)"><g clip-path="url(#7eddccf864)"><path fill="#231f20" d="M 40.921875 88.285156 C 39.585938 90.488281 37.390625 94.128906 35.199219 97.757812 C 34.273438 99.300781 33.886719 100.582031 34.492188 99.898438 C 37.058594 97.015625 40.644531 91.742188 44.421875 86.019531 C 46.8125 82.964844 49.277344 79.058594 48.433594 79.429688 C 47.605469 79.980469 44.242188 82.683594 40.921875 88.285156 " fill-opacity="1" fill-rule="nonzero"/></g></g></g></g><g clip-path="url(#c84738a1f5)"><g clip-path="url(#d1434a0d72)"><g clip-path="url(#82db4d4629)"><g clip-path="url(#5c5316dc1a)"><path fill="#231f20" d="M 105.40625 34.890625 C 104.972656 35.230469 105.285156 35.300781 105.902344 35.019531 C 107.1875 34.472656 108.824219 33.449219 110.8125 32.773438 C 113.605469 31.484375 116.628906 30.085938 119.574219 28.722656 C 120.5 28.285156 121.578125 27.632812 121.835938 27.390625 C 122.097656 27.148438 121.753906 27.109375 121.066406 27.324219 C 116.875 28.796875 108.558594 32.011719 105.40625 34.890625 " fill-opacity="1" fill-rule="nonzero"/></g></g></g></g><g clip-path="url(#2da7e2f5f2)"><g clip-path="url(#94d1acbd0a)"><g clip-path="url(#28b1a96f2a)"><g clip-path="url(#beb9260a11)"><path fill="#231f20" d="M 230.949219 364.796875 C 226.621094 365.695312 222.324219 366.914062 218.066406 367.554688 C 217.558594 367.65625 217.179688 367.804688 217.226562 367.855469 C 217.277344 367.910156 217.789062 367.925781 218.335938 367.871094 C 224.246094 367.363281 229.914062 365.386719 235.648438 364.046875 C 236.164062 363.914062 236.523438 363.738281 236.949219 363.589844 C 236.375 363.683594 235.863281 363.773438 235.210938 363.882812 C 233.832031 364.179688 232.375 364.492188 230.949219 364.796875 " fill-opacity="1" fill-rule="nonzero"/></g></g></g></g><g clip-path="url(#9a27405ed2)"><g clip-path="url(#f6c2a7a2ae)"><g clip-path="url(#0f8b723a55)"><g clip-path="url(#e8d8ece6ee)"><path fill="#231f20" d="M 15.386719 168.480469 C 15.449219 168.347656 15.523438 167.632812 15.640625 166.867188 C 15.730469 165.160156 16.132812 163.179688 16.359375 161.230469 C 16.429688 160.726562 16.449219 160.082031 16.414062 159.933594 C 16.316406 159.523438 16.078125 160.339844 15.832031 162.003906 C 15.578125 163.972656 15.203125 165.921875 15.25 167.863281 C 15.238281 168.21875 15.328125 168.601562 15.386719 168.480469 " fill-opacity="1" fill-rule="nonzero"/></g></g></g></g><g clip-path="url(#c0fb60187d)"><g clip-path="url(#6e2a8f4157)"><g clip-path="url(#e060eb806b)"><g clip-path="url(#55349df1df)"><path fill="#231f20" d="M 102.164062 23.15625 C 102.660156 22.707031 102.277344 22.777344 100.988281 23.503906 C 100.304688 23.890625 99.496094 24.492188 98.941406 24.902344 C 98.78125 25.023438 99.175781 24.910156 99.546875 24.734375 C 100.621094 24.234375 101.550781 23.667969 102.164062 23.15625 " fill-opacity="1" fill-rule="nonzero"/></g></g></g></g><g clip-path="url(#797db1ce20)"><g clip-path="url(#26955b0e4a)"><g clip-path="url(#66c6ecf4c8)"><g clip-path="url(#42f0fbb9bb)"><path fill="#231f20" d="M 23.703125 134.421875 C 23.550781 134.808594 23.398438 135.078125 23.242188 135.59375 C 22.902344 136.730469 22.476562 138.101562 22.234375 139.167969 C 21.910156 140.609375 21.996094 140.921875 22.363281 140.003906 C 22.914062 138.625 23.542969 136.347656 23.765625 134.933594 C 23.824219 134.554688 23.726562 134.582031 23.703125 134.421875 " fill-opacity="1" fill-rule="nonzero"/></g></g></g></g><g clip-path="url(#50b1bfcf44)"><g clip-path="url(#a71d793cb6)"><g clip-path="url(#590186cadd)"><g clip-path="url(#da12757de0)"><path fill="#231f20" d="M 48.523438 87.902344 C 48.289062 88.472656 48.808594 87.972656 49.851562 86.613281 C 50.148438 86.222656 50.375 85.789062 50.636719 85.375 C 50.800781 84.878906 50.34375 85.308594 49.292969 86.679688 C 48.992188 87.074219 48.601562 87.703125 48.523438 87.902344 " fill-opacity="1" fill-rule="nonzero"/></g></g></g></g><g clip-path="url(#6839e8a781)"><g clip-path="url(#65a7ff5121)"><g clip-path="url(#17438ed86d)"><g clip-path="url(#cd29169546)"><path fill="#231f20" d="M 82.460938 327.964844 C 81.917969 327.746094 82.4375 328.28125 83.777344 329.328125 C 84.230469 329.6875 85.101562 330.300781 85.234375 330.347656 C 85.75 330.546875 85.21875 330.011719 83.933594 328.984375 C 83.425781 328.632812 82.605469 328.023438 82.460938 327.964844 " fill-opacity="1" fill-rule="nonzero"/></g></g></g></g><g clip-path="url(#cc5784629b)"><g clip-path="url(#1314dba852)"><g clip-path="url(#8784cd7c29)"><g clip-path="url(#01d12e57fb)"><path fill="#231f20" d="M 272.691406 350.203125 L 273.199219 350.117188 C 274.191406 349.515625 275.195312 348.902344 276.15625 348.320312 C 276.214844 348.28125 275.847656 348.371094 275.675781 348.398438 L 272.691406 350.203125 " fill-opacity="1" fill-rule="nonzero"/></g></g></g></g><g clip-path="url(#43c30043fa)"><g clip-path="url(#7a359ebf57)"><g clip-path="url(#79d3fc85f8)"><g clip-path="url(#de905e0499)"><path fill="#231f20" d="M 95.066406 31.96875 C 95.09375 32.019531 95.496094 31.894531 95.914062 31.675781 C 97.308594 30.949219 98.089844 30.417969 98.140625 30.199219 C 97.859375 30.292969 97.679688 30.292969 97.273438 30.503906 C 95.867188 31.238281 95.003906 31.816406 95.066406 31.96875 " fill-opacity="1" fill-rule="nonzero"/></g></g></g></g><g clip-path="url(#6ba1564431)"><g clip-path="url(#4c2feb2df7)"><g clip-path="url(#957e4a282a)"><g clip-path="url(#10072a5ec1)"><path fill="#231f20" d="M 44.605469 107.082031 C 44.46875 107.386719 44.320312 107.863281 44.375 107.828125 C 44.433594 107.796875 44.734375 107.226562 44.925781 106.894531 L 45.179688 106.082031 C 44.984375 106.417969 44.773438 106.789062 44.605469 107.082031 " fill-opacity="1" fill-rule="nonzero"/></g></g></g></g><g clip-path="url(#c71d867fed)"><g clip-path="url(#3682a876c3)"><g clip-path="url(#fbf3f5f723)"><g clip-path="url(#14901dc52b)"><path fill="#231f20" d="M 9.574219 168.820312 C 9.589844 168.449219 9.53125 168.164062 9.503906 167.839844 C 9.449219 168.289062 9.394531 168.789062 9.34375 169.179688 C 9.328125 169.5625 9.390625 169.84375 9.417969 170.171875 C 9.472656 169.714844 9.527344 169.222656 9.574219 168.820312 " fill-opacity="1" fill-rule="nonzero"/></g></g></g></g><g clip-path="url(#ea085ce8b5)"><g clip-path="url(#f432adebde)"><g clip-path="url(#bc38c52f6f)"><g clip-path="url(#9b15a7421c)"><path fill="#231f20" d="M 37.484375 131.15625 C 37.671875 130.714844 37.886719 130.195312 38.03125 129.855469 C 38.175781 129.421875 38.308594 128.84375 38.273438 128.800781 C 38.140625 128.628906 37.816406 129.382812 37.484375 130.652344 C 37.394531 130.996094 37.480469 130.996094 37.484375 131.15625 " fill-opacity="1" fill-rule="nonzero"/></g></g></g></g><g clip-path="url(#e59e34731f)"><g clip-path="url(#be183b3c14)"><g clip-path="url(#f68e82d351)"><g clip-path="url(#3a83f7c9c7)"><path fill="#231f20" d="M 112.054688 35.109375 L 111.050781 35.410156 L 110.628906 35.78125 Z M 112.054688 35.109375 " fill-opacity="1" fill-rule="nonzero"/></g></g></g></g><g clip-path="url(#b5acd82b90)"><g clip-path="url(#34eadea785)"><g clip-path="url(#2ab6971d00)"><g clip-path="url(#7ea7aed0cf)"><path fill="#231f20" d="M 8.796875 200.324219 L 8.988281 201.882812 L 9.039062 201.3125 Z M 8.796875 200.324219 " fill-opacity="1" fill-rule="nonzero"/></g></g></g></g><g clip-path="url(#ad8fb96442)"><g clip-path="url(#f8653aa8dc)"><g clip-path="url(#9a2e22f0b5)"><g clip-path="url(#6b6b0eaf18)"><path fill="#231f20" d="M 324.953125 103.464844 L 325.449219 104.167969 L 324.777344 102.953125 Z M 324.953125 103.464844 " fill-opacity="1" fill-rule="nonzero"/></g></g></g></g><g clip-path="url(#b13977f098)"><g clip-path="url(#4c19159c7d)"><g clip-path="url(#b8b307cf25)"><path fill="#ffffff" d="M 273.183594 132.757812 L 271.089844 134.023438 L 273.195312 132.78125 L 273.183594 132.757812 L 271.089844 134.023438 L 273.195312 132.78125 C 273.195312 132.78125 273.136719 132.679688 273.03125 132.488281 C 272.671875 131.8125 271.785156 130.007812 271.070312 127.542969 C 270.355469 125.074219 269.824219 121.960938 270.058594 118.625 C 270.175781 116.949219 270.480469 115.214844 271.046875 113.441406 C 271.617188 111.667969 272.445312 109.851562 273.644531 107.996094 C 274.332031 106.921875 275.5 105.792969 277.191406 104.746094 C 279.71875 103.175781 283.386719 101.867188 287.664062 101.109375 C 291.9375 100.339844 296.808594 100.101562 301.753906 100.445312 C 308.59375 100.917969 315.574219 102.519531 321.410156 105.183594 C 324.328125 106.511719 326.960938 108.101562 329.171875 109.90625 C 331.386719 111.714844 333.179688 113.730469 334.5 115.941406 C 335.710938 117.972656 336.4375 119.855469 336.847656 121.609375 C 337.257812 123.363281 337.355469 125 337.246094 126.542969 C 337.132812 128.214844 336.769531 129.777344 336.273438 131.195312 C 335.539062 133.316406 334.5 135.101562 333.664062 136.3125 C 333.246094 136.914062 332.882812 137.378906 332.640625 137.664062 C 332.519531 137.8125 332.429688 137.914062 332.378906 137.96875 L 332.332031 138.019531 L 334.179688 139.761719 L 332.355469 138 L 332.332031 138.019531 L 334.179688 139.761719 L 332.355469 138 C 330.449219 139.96875 330.507812 143.113281 332.476562 145.011719 C 334.449219 146.914062 337.585938 146.859375 339.488281 144.890625 C 339.683594 144.683594 341.34375 142.941406 343.113281 139.925781 C 343.996094 138.417969 344.90625 136.582031 345.644531 134.453125 C 346.382812 132.328125 346.957031 129.898438 347.144531 127.230469 C 347.316406 124.777344 347.152344 122.113281 346.507812 119.347656 C 345.859375 116.582031 344.726562 113.722656 343.019531 110.863281 C 341.027344 107.523438 338.421875 104.652344 335.441406 102.21875 C 330.96875 98.574219 325.652344 95.890625 320.003906 93.988281 C 314.355469 92.085938 308.359375 90.964844 302.441406 90.550781 C 294.832031 90.027344 287.363281 90.65625 280.878906 92.503906 C 277.640625 93.433594 274.636719 94.671875 271.976562 96.308594 C 269.332031 97.945312 267.003906 100.003906 265.316406 102.609375 C 263.640625 105.199219 262.429688 107.832031 261.601562 110.417969 C 260.773438 113.003906 260.332031 115.535156 260.164062 117.933594 C 259.773438 123.597656 260.886719 128.488281 262.074219 131.996094 C 263.269531 135.507812 264.554688 137.660156 264.6875 137.886719 C 266.105469 140.230469 269.152344 140.984375 271.5 139.570312 C 273.84375 138.15625 274.597656 135.105469 273.179688 132.761719 L 273.183594 132.757812 " fill-opacity="1" fill-rule="nonzero"/></g></g></g><g clip-path="url(#62e606b778)"><g clip-path="url(#d86fb8403d)"><g clip-path="url(#d927393be8)"><path fill="#ffffff" d="M 367.886719 153.542969 C 373.941406 162.546875 370.5 224.128906 363.246094 231.285156 C 339.871094 254.355469 269.066406 245.722656 244.84375 244.238281 C 236.167969 243.707031 237.261719 235.828125 237.261719 235.828125 L 244.121094 136.039062 C 244.121094 136.039062 244.71875 127.320312 253.105469 127.070312 C 278.03125 126.332031 351.0625 128.554688 367.886719 153.542969 " fill-opacity="1" fill-rule="nonzero"/></g></g></g><g clip-path="url(#5001e5c772)"><g clip-path="url(#406fbc128d)"><g clip-path="url(#ae3b269aa0)"><path fill="#b4a4d5" d="M 257.636719 135.863281 C 258.402344 135.972656 259.164062 136.082031 259.917969 136.195312 C 269.3125 137.597656 278.789062 138.617188 288.011719 140.980469 C 302.691406 144.746094 318.058594 150.253906 330.316406 159.363281 C 342.765625 168.617188 351.363281 181.339844 350.128906 197.367188 C 349.046875 211.355469 343.09375 225.492188 333.527344 235.863281 C 343.453125 233.722656 351.992188 230.253906 357.464844 224.847656 C 363.664062 218.730469 366.609375 166.097656 361.433594 158.398438 C 345.351562 134.515625 269.179688 135.566406 257.636719 135.863281 " fill-opacity="1" fill-rule="nonzero"/></g></g></g><g clip-path="url(#4905634ac3)"><g clip-path="url(#1f94272cb7)"><g clip-path="url(#886b41a85a)"><path fill="#dbe0e2" d="M 365.734375 163.046875 C 367.597656 163.175781 368.195312 176.59375 367.066406 193.019531 C 365.941406 209.445312 363.511719 222.652344 361.644531 222.527344 C 359.78125 222.398438 359.183594 208.980469 360.316406 192.554688 C 361.445312 176.132812 363.871094 162.921875 365.734375 163.046875 " fill-opacity="1" fill-rule="nonzero"/></g></g></g><g clip-path="url(#6eeea6dffe)"><g clip-path="url(#6234d57148)"><g clip-path="url(#d25a82f691)"><path fill="#b4a4d5" d="M 248.851562 128.222656 C 255.570312 128.683594 259.25 154.804688 257.070312 186.5625 C 254.882812 218.320312 247.667969 243.695312 240.949219 243.230469 C 234.222656 242.769531 230.542969 216.648438 232.726562 184.890625 C 234.910156 153.132812 242.128906 127.761719 248.851562 128.222656 " fill-opacity="1" fill-rule="nonzero"/></g></g></g><g clip-path="url(#318d8e93b9)"><g clip-path="url(#378e1d0571)"><g clip-path="url(#d4fff45ed5)"><path fill="#191616" d="M 248.042969 138.578125 C 251.625 138.824219 253.078125 160.128906 251.289062 186.164062 C 249.5 212.199219 245.144531 233.105469 241.5625 232.859375 C 237.984375 232.613281 236.527344 211.308594 238.316406 185.273438 C 240.109375 159.238281 244.460938 138.332031 248.042969 138.578125 " fill-opacity="1" fill-rule="nonzero"/></g></g></g><g clip-path="url(#d7c8495ed7)"><g clip-path="url(#e70fc5dfd1)"><g clip-path="url(#c9bdc633bb)"><path fill="#dbe0e2" d="M 259.980469 232.75 C 263.347656 224.859375 263.136719 222.191406 263.746094 212.683594 C 264.316406 203.753906 297.320312 228.5 311.988281 215.746094 C 325.441406 204.046875 328.828125 225.394531 318.867188 233.851562 C 308.898438 242.308594 256.214844 241.570312 259.980469 232.75 " fill-opacity="1" fill-rule="nonzero"/></g></g></g><g clip-path="url(#3e774fba2d)"><g clip-path="url(#6cddd48679)"><g clip-path="url(#c3edc3dc34)"><path fill="#191616" d="M 239.785156 240.28125 C 233.769531 250.617188 215.210938 235.152344 194.148438 245.089844 C 180.027344 251.753906 130.953125 260.015625 119.851562 232.195312 C 108.75 204.371094 130.03125 187.671875 159.71875 201.222656 C 189.414062 214.777344 218.632812 200.027344 237.558594 207.703125 C 237.558594 207.703125 255.011719 214.109375 239.785156 240.28125 " fill-opacity="1" fill-rule="nonzero"/></g></g></g><g clip-path="url(#098090f9b4)"><g clip-path="url(#489176d19b)"><g clip-path="url(#45837573d2)"><path fill="#191616" d="M 167.066406 199.882812 C 167.160156 191.960938 159.007812 178.738281 145.441406 180.644531 C 131.878906 182.546875 135.5625 194.324219 146.972656 193.398438 C 159.539062 192.378906 167 205.183594 167.066406 199.882812 " fill-opacity="1" fill-rule="nonzero"/></g></g></g><g clip-path="url(#7e85060e7c)"><g clip-path="url(#c3b4c19ad5)"><g clip-path="url(#3fff432691)"><path fill="#191616" d="M 169.871094 201.417969 C 169.871094 201.417969 173.53125 186.789062 188.226562 186.777344 C 202.925781 186.769531 189.320312 195.351562 182.949219 198.007812 C 176.582031 200.667969 167.824219 204.445312 169.871094 201.417969 " fill-opacity="1" fill-rule="nonzero"/></g></g></g><g clip-path="url(#60387818b1)"><g clip-path="url(#438fc9af64)"><g clip-path="url(#0b86185f4b)"><path fill="#191616" d="M 186.539062 184.335938 C 186.539062 184.335938 192.171875 183.085938 194.542969 184.890625 C 196.917969 186.699219 197.859375 184.417969 196.726562 181.605469 C 195.59375 178.792969 188.554688 177.835938 186.539062 184.335938 " fill-opacity="1" fill-rule="nonzero"/></g></g></g><g clip-path="url(#8f43051171)"><g clip-path="url(#43e9bc932a)"><g clip-path="url(#34d2e4b7d6)"><path fill="#191616" d="M 183.433594 184.039062 C 183.894531 182.527344 183.640625 178.429688 179.269531 180.625 C 174.898438 182.820312 178.582031 186.773438 180.800781 186.355469 C 183.015625 185.9375 183.136719 185.015625 183.433594 184.039062 " fill-opacity="1" fill-rule="nonzero"/></g></g></g><path fill="#191616" d="M 143.484375 301.761719 C 142.710938 302.261719 141.125 302.40625 140.703125 301.390625 C 140.277344 300.375 140.847656 298.847656 141.203125 297.703125 C 141.769531 300.222656 142.757812 301.925781 144.472656 300.820312 C 144.242188 301.171875 143.914062 301.484375 143.484375 301.761719 Z M 85.058594 225.054688 C 84.007812 225.265625 82.960938 225.46875 81.882812 225.355469 C 80.789062 225.238281 79.746094 224.816406 78.730469 224.417969 C 78.175781 224.195312 77.910156 223.667969 77.910156 223.132812 C 77.824219 222.5625 78.058594 221.988281 78.75 221.769531 C 79.125 221.574219 79.507812 221.511719 79.894531 221.476562 C 80.4375 221.347656 80.980469 221.234375 81.53125 221.183594 C 81.785156 221.105469 82.023438 221.105469 82.234375 221.15625 C 82.253906 221.15625 82.273438 221.15625 82.292969 221.15625 C 83.644531 221.195312 84.78125 221.726562 85.867188 222.496094 C 87.027344 223.320312 86.167969 224.835938 85.058594 225.054688 Z M 70.808594 216.800781 C 68.773438 217.058594 66.6875 217.117188 64.65625 216.765625 C 63.371094 216.542969 61.820312 216.414062 60.714844 215.648438 C 58.382812 214.039062 60.257812 211.316406 61.863281 210.164062 C 64.484375 208.28125 67.585938 207.621094 70.738281 207.296875 C 73.132812 207.054688 82.195312 207.8125 81.171875 211.976562 C 80.824219 213.390625 78.289062 214.535156 77.085938 215.097656 C 75.113281 216.019531 72.960938 216.527344 70.808594 216.800781 Z M 72.425781 234.765625 C 71.46875 237.113281 66.359375 238.3125 64.507812 238.542969 C 61.621094 238.90625 58.371094 238.675781 55.828125 237.140625 C 53.90625 235.980469 55.835938 233.542969 56.984375 232.617188 C 58.769531 231.179688 61.28125 231.234375 63.460938 231.070312 C 65.5 230.917969 72.207031 230.792969 72.566406 233.734375 C 72.609375 234.101562 72.554688 234.445312 72.425781 234.765625 Z M 64.40625 249.226562 C 61.625 251.363281 58.164062 251.683594 55.515625 249.15625 C 54.875 248.550781 54.753906 247.382812 55.597656 246.863281 C 55.613281 246.851562 55.628906 246.84375 55.644531 246.835938 C 55.695312 246.800781 55.75 246.773438 55.804688 246.742188 C 56.890625 246.125 58.101562 245.832031 59.335938 245.765625 C 60.507812 245.628906 61.667969 245.714844 62.828125 246.117188 C 62.949219 246.144531 63.058594 246.1875 63.160156 246.238281 C 63.5 246.371094 63.835938 246.535156 64.175781 246.730469 C 65.128906 247.273438 65.316406 248.523438 64.40625 249.226562 Z M 204.875 198.632812 C 197.132812 195.890625 184.023438 199.875 178.015625 193.605469 C 180.144531 189.171875 200.527344 189.195312 193.179688 182.765625 C 187.777344 178.039062 159.960938 177.050781 156.816406 185.195312 C 154.773438 190.480469 165.726562 191.503906 160.808594 197.027344 C 156.835938 201.488281 141.371094 197.03125 137.441406 196.609375 C 124.566406 195.230469 111.683594 195.738281 98.808594 196.605469 C 84.816406 197.546875 71.394531 199.695312 57.886719 203.519531 C 52.667969 205 42.097656 205.5625 41.015625 212.996094 C 40.203125 216.800781 55.203125 216.152344 54.410156 220.835938 C 53.511719 226.152344 35.460938 225.199219 31.84375 225.496094 C 27.273438 225.871094 -6.347656 231.964844 6.636719 241.945312 C 16.609375 249.609375 33.527344 238.429688 43.667969 243.933594 C 52.972656 248.984375 33.636719 249.761719 33.042969 255.207031 C 31.671875 263.449219 55.328125 253.726562 66.964844 255.535156 C 67.914062 255.910156 68.777344 256.46875 69.464844 257.300781 C 71.246094 259.449219 69.84375 262.316406 70.789062 264.757812 C 71.613281 266.890625 73.734375 268.042969 75.816406 268.640625 C 78.335938 269.359375 81.144531 269.03125 83.675781 268.558594 C 86.625 268.003906 89.480469 267.050781 92.359375 266.226562 C 95.285156 265.390625 98.253906 264.691406 101.242188 264.117188 C 102.484375 263.878906 103.726562 263.664062 104.972656 263.46875 C 105.046875 263.464844 105.113281 263.453125 105.179688 263.4375 C 108.484375 262.9375 111.808594 262.59375 115.144531 262.398438 C 115.863281 262.425781 116.578125 262.476562 117.292969 262.546875 C 119.214844 262.734375 121.117188 263.082031 122.992188 263.546875 C 124.375 263.890625 125.722656 264.351562 126.886719 265.140625 C 128.328125 266.8125 128.6875 268.695312 128.824219 270.726562 C 128.796875 271.164062 128.746094 271.605469 128.671875 272.046875 C 128.363281 273.859375 127.273438 275.464844 127.1875 277.3125 C 127.113281 278.855469 127.9375 280.53125 129.464844 281.0625 C 131.113281 281.640625 132.625 280.617188 133.316406 279.140625 C 134.144531 277.382812 133.269531 275.242188 132.96875 273.460938 C 132.886719 272.96875 132.816406 272.480469 132.757812 271.988281 C 133.601562 267.691406 134.144531 262.90625 138.257812 263.777344 C 142.296875 264.632812 139.929688 271.160156 139.773438 273.902344 C 139.5625 277.652344 140.109375 281.292969 140.335938 285.011719 C 140.210938 288.085938 139.847656 291.140625 139.253906 294.171875 C 138.625 297.359375 136.210938 302.359375 140.082031 304.398438 C 143.148438 306.011719 146.925781 303.457031 147.554688 300.351562 C 147.75 299.382812 147.546875 298.355469 147.394531 297.398438 C 147.355469 297.152344 147.3125 296.90625 147.273438 296.660156 C 147.839844 293.597656 146.519531 289.34375 146.507812 286.722656 C 146.476562 281.613281 146.691406 276.1875 147.039062 271.066406 C 147.546875 263.613281 153.449219 262.027344 152.847656 269.878906 C 152.4375 270.859375 152.046875 271.851562 151.679688 272.851562 C 151.078125 274.476562 150.613281 276.167969 150.769531 277.917969 C 151.136719 281.984375 155.574219 283.46875 158.945312 282.023438 C 162.246094 280.605469 164.308594 277.019531 163.703125 273.472656 C 163.390625 271.640625 162.691406 270 162.640625 268.128906 C 163.117188 266.914062 164.148438 266.050781 166.820312 265.507812 C 166.472656 266.511719 166.183594 267.546875 166.359375 268.617188 C 166.671875 270.515625 168.546875 271.980469 170.445312 271.269531 C 172.460938 270.511719 172.449219 268.070312 171.992188 266.363281 C 171.863281 265.878906 171.714844 265.359375 171.605469 264.835938 C 181.90625 263.628906 194.4375 262.832031 199.472656 252.691406 C 207.996094 235.519531 190.476562 235.308594 181.570312 227.570312 C 169.972656 217.496094 198.648438 215.507812 203.417969 213.953125 C 212.71875 210.921875 216.074219 202.597656 204.875 198.632812 " fill-opacity="1" fill-rule="nonzero"/><path fill="#191616" d="M 30.859375 212.890625 C 30.367188 212.820312 29.875 212.765625 29.382812 212.726562 C 28.613281 212.621094 27.855469 212.585938 27.210938 212.5625 C 24.433594 212.472656 21.449219 212.929688 19.007812 214.320312 C 17.957031 214.921875 17.367188 216.054688 17.882812 217.230469 C 18.421875 218.457031 19.859375 218.976562 21.023438 219.40625 C 23.542969 220.328125 26.265625 220.597656 28.921875 220.292969 C 30.195312 220.144531 31.460938 219.820312 32.671875 219.394531 C 33.738281 219.015625 35.320312 218.457031 35.820312 217.328125 C 37.179688 214.25 32.988281 213.203125 30.859375 212.890625 " fill-opacity="1" fill-rule="nonzero"/><path fill="#191616" d="M 23.242188 251.3125 C 23.039062 251.148438 22.816406 251.011719 22.578125 250.90625 C 21.539062 250.34375 20.234375 250.066406 19.105469 249.804688 C 17.71875 249.480469 16.296875 249.359375 14.875 249.316406 C 12.15625 249.234375 9.398438 249.769531 6.859375 250.738281 C 5.804688 251.140625 4.59375 251.609375 3.921875 252.570312 C 3.105469 253.726562 3.507812 255.007812 4.433594 255.9375 C 5.261719 256.769531 6.691406 257.066406 7.769531 257.394531 C 9.1875 257.820312 10.652344 258.074219 12.125 258.222656 C 14.988281 258.503906 17.835938 258.238281 20.625 257.550781 C 22.15625 257.171875 24.5 256.652344 25.285156 255.097656 C 26.214844 253.261719 24.761719 252.011719 23.242188 251.3125 " fill-opacity="1" fill-rule="nonzero"/><path fill="#191616" d="M 68.113281 261.34375 C 67.808594 260.964844 67.457031 260.71875 67.070312 260.550781 C 66.957031 260.375 66.796875 260.21875 66.578125 260.09375 C 64.589844 258.96875 62.027344 259.414062 59.902344 259.871094 C 58.234375 260.226562 54.648438 261.285156 54.882812 263.589844 C 55.140625 266.109375 58.335938 266.289062 60.292969 266.335938 C 62.613281 266.398438 65.539062 265.792969 67.453125 264.417969 C 68.324219 263.792969 68.855469 262.269531 68.113281 261.34375 " fill-opacity="1" fill-rule="nonzero"/><path fill="#191616" d="M 198.546875 190.929688 C 197.835938 190.292969 196.816406 190.230469 195.910156 190.121094 C 193.628906 189.847656 191.34375 190.085938 189.132812 190.683594 C 188.375 190.886719 188.148438 191.515625 188.285156 192.105469 C 188.265625 192.300781 188.28125 192.503906 188.34375 192.699219 C 188.910156 194.5 190.941406 194.855469 192.582031 194.917969 C 193.644531 194.957031 194.671875 194.859375 195.707031 194.625 C 196.613281 194.417969 198.019531 194.15625 198.632812 193.371094 C 199.207031 192.636719 199.296875 191.597656 198.546875 190.929688 " fill-opacity="1" fill-rule="nonzero"/><path fill="#191616" d="M 196.550781 223.039062 C 195.207031 221.808594 192.960938 221.410156 191.21875 221.269531 C 189.085938 221.09375 186.945312 221.445312 184.972656 222.269531 C 183.980469 222.683594 183.953125 223.816406 184.460938 224.460938 C 184.433594 224.558594 184.40625 224.65625 184.390625 224.753906 C 184.207031 225.742188 184.765625 226.589844 185.402344 227.265625 C 186.703125 228.652344 189.3125 229.148438 191.117188 229.183594 C 192.988281 229.21875 194.992188 228.800781 196.554688 227.734375 C 198.339844 226.515625 197.960938 224.332031 196.550781 223.039062 " fill-opacity="1" fill-rule="nonzero"/><path fill="#191616" d="M 206.863281 217.949219 C 205.027344 216.304688 202.285156 216.167969 200.253906 217.511719 C 200.195312 217.523438 200.140625 217.535156 200.085938 217.550781 C 199.460938 217.703125 199.21875 218.367188 199.199219 218.929688 C 199.140625 220.558594 200.921875 221.136719 202.234375 221.226562 C 203.863281 221.335938 205.378906 220.902344 206.78125 220.089844 C 207.570312 219.636719 207.460938 218.484375 206.863281 217.949219 " fill-opacity="1" fill-rule="nonzero"/><path fill="#191616" d="M 205.316406 225.265625 C 205.15625 224.832031 204.753906 224.46875 204.289062 224.398438 C 203.515625 224.289062 202.757812 224.449219 202.117188 224.898438 C 201.511719 225.324219 201.371094 226.1875 201.796875 226.785156 C 202.082031 227.183594 202.550781 227.378906 203.007812 227.34375 C 203.25 227.414062 203.507812 227.445312 203.757812 227.40625 C 204.390625 227.3125 205.042969 226.9375 205.269531 226.300781 C 205.394531 225.949219 205.449219 225.628906 205.316406 225.265625 " fill-opacity="1" fill-rule="nonzero"/></svg>