<svg xmlns="http://www.w3.org/2000/svg" xmlns:xlink="http://www.w3.org/1999/xlink" width="500" zoomAndPan="magnify" viewBox="0 0 375 374.999991" height="500" preserveAspectRatio="xMidYMid meet" version="1.0"><defs><clipPath id="35ee719cd0"><path d="M 0 23.4375 L 375 23.4375 L 375 351.9375 L 0 351.9375 Z M 0 23.4375 " clip-rule="nonzero"/></clipPath></defs><g clip-path="url(#35ee719cd0)"><path fill="#794500" d="M 351.226562 68.074219 L 355.582031 65.410156 C 347.324219 51.878906 335.683594 41.359375 322.292969 34.25 C 308.902344 27.144531 293.757812 23.414062 278.371094 23.414062 C 273.355469 23.414062 268.304688 23.808594 263.289062 24.621094 C 245.695312 27.457031 229.515625 35.386719 216.1875 46.96875 C 215.847656 47.253906 215.488281 47.585938 215.046875 48.011719 C 213.398438 49.574219 210.667969 52.296875 207.429688 55.667969 C 202.570312 60.71875 196.621094 67.15625 191.796875 72.988281 C 189.382812 75.914062 187.246094 78.671875 185.613281 81.15625 C 184.796875 82.40625 184.101562 83.574219 183.539062 84.773438 C 183.261719 85.371094 183.011719 85.980469 182.8125 86.660156 C 182.613281 87.339844 182.449219 88.085938 182.445312 89.042969 C 182.445312 89.554688 182.492188 90.128906 182.660156 90.761719 C 182.832031 91.382812 183.121094 92.066406 183.5625 92.691406 L 187.742188 89.757812 L 191.863281 86.75 C 191.84375 86.71875 191.757812 86.59375 191.609375 86.394531 C 190.628906 85.058594 189.070312 84.289062 187.417969 84.316406 C 185.761719 84.34375 184.226562 85.164062 183.292969 86.527344 C 183.273438 86.554688 183.195312 86.660156 183.050781 86.859375 C 181.460938 89.171875 182.042969 92.347656 184.339844 93.945312 C 186.640625 95.550781 189.820312 94.988281 191.433594 92.695312 C 191.878906 92.066406 192.167969 91.382812 192.335938 90.761719 C 192.503906 90.128906 192.554688 89.554688 192.554688 89.042969 C 192.539062 87.6875 192.234375 86.734375 191.90625 85.832031 C 191.589844 84.992188 191.207031 84.214844 190.765625 83.421875 C 189.9375 81.9375 188.910156 80.394531 187.707031 78.738281 C 185.601562 75.855469 182.96875 72.640625 180.125 69.363281 C 175.871094 64.441406 171.15625 59.390625 167.222656 55.304688 C 165.253906 53.261719 163.476562 51.464844 162.042969 50.046875 C 161.328125 49.332031 160.695312 48.722656 160.164062 48.210938 C 159.625 47.699219 159.199219 47.300781 158.816406 46.96875 C 145.476562 35.386719 129.304688 27.457031 111.710938 24.621094 C 106.691406 23.808594 101.644531 23.414062 96.628906 23.414062 C 81.246094 23.414062 66.101562 27.144531 52.707031 34.25 C 39.316406 41.359375 27.675781 51.878906 19.417969 65.410156 C 14.878906 72.851562 10.226562 82.390625 6.640625 92.382812 C 4.84375 97.371094 3.324219 102.476562 2.242188 107.5 C 1.164062 112.527344 0.511719 117.460938 0.511719 122.167969 C 0.507812 139.171875 4.207031 154.933594 10.386719 169.519531 C 19.65625 191.410156 34.4375 210.671875 50.804688 228.207031 C 67.179688 245.734375 85.1875 261.554688 101.082031 276.414062 C 101.484375 276.792969 102.066406 277.3125 102.863281 278.015625 C 105.832031 280.648438 111.71875 285.753906 119.070312 292.144531 C 130.09375 301.722656 144.402344 314.160156 156.90625 325.234375 C 163.160156 330.777344 168.96875 335.972656 173.679688 340.296875 C 176.03125 342.453125 178.109375 344.394531 179.828125 346.039062 C 181.539062 347.675781 182.902344 349.03125 183.761719 349.957031 C 184.726562 350.996094 186.074219 351.582031 187.496094 351.582031 C 188.921875 351.582031 190.265625 350.996094 191.234375 349.957031 C 192.460938 348.636719 194.675781 346.46875 197.527344 343.800781 C 202.53125 339.121094 209.523438 332.828125 217.253906 325.976562 C 228.851562 315.691406 242.113281 304.148438 252.910156 294.765625 C 258.308594 290.070312 263.089844 285.921875 266.746094 282.738281 C 268.578125 281.140625 270.125 279.789062 271.328125 278.730469 C 272.542969 277.664062 273.390625 276.910156 273.917969 276.414062 C 295.105469 256.597656 320.054688 235.09375 339.882812 210.0625 C 349.796875 197.539062 358.4375 184.109375 364.613281 169.519531 C 370.792969 154.933594 374.492188 139.171875 374.488281 122.167969 C 374.488281 117.460938 373.835938 112.527344 372.753906 107.5 C 371.128906 99.96875 368.523438 92.246094 365.488281 85 C 362.449219 77.75 358.984375 70.988281 355.585938 65.414062 L 355.582031 65.410156 L 351.226562 68.074219 L 346.867188 70.726562 C 351 77.5 355.421875 86.550781 358.75 95.828125 C 360.414062 100.464844 361.808594 105.164062 362.773438 109.652344 C 363.746094 114.136719 364.28125 118.414062 364.277344 122.167969 C 364.273438 137.6875 360.929688 152.023438 355.210938 165.542969 C 346.636719 185.804688 332.648438 204.191406 316.726562 221.234375 C 300.8125 238.28125 283 253.957031 266.945312 268.953125 C 266.6875 269.191406 266.128906 269.699219 265.363281 270.375 C 262.472656 272.933594 256.574219 278.050781 249.226562 284.4375 C 238.199219 294.019531 223.875 306.46875 211.316406 317.59375 C 205.035156 323.15625 199.195312 328.382812 194.414062 332.769531 C 192.023438 334.964844 189.898438 336.945312 188.105469 338.660156 C 186.308594 340.378906 184.859375 341.820312 183.761719 343 L 187.496094 346.476562 L 191.234375 343 C 189.679688 341.328125 187.382812 339.101562 184.445312 336.347656 C 179.316406 331.546875 172.277344 325.21875 164.511719 318.332031 C 152.867188 308.007812 139.585938 296.445312 128.78125 287.058594 C 123.382812 282.363281 118.601562 278.210938 114.957031 275.039062 C 113.136719 273.453125 111.597656 272.109375 110.414062 271.066406 C 109.242188 270.03125 108.394531 269.273438 108.054688 268.953125 C 86.648438 248.964844 62.117188 227.734375 43.121094 203.722656 C 33.617188 191.726562 25.507812 179.050781 19.789062 165.542969 C 14.066406 152.023438 10.726562 137.6875 10.722656 122.167969 C 10.71875 118.414062 11.257812 114.136719 12.222656 109.652344 C 13.671875 102.921875 16.089844 95.71875 18.929688 88.941406 C 21.765625 82.171875 25.03125 75.804688 28.132812 70.730469 C 35.390625 58.839844 45.617188 49.582031 57.496094 43.269531 C 69.371094 36.964844 82.894531 33.625 96.628906 33.625 C 101.105469 33.625 105.613281 33.980469 110.082031 34.703125 C 125.6875 37.214844 140.117188 44.257812 152.125 54.679688 C 152.253906 54.789062 152.550781 55.058594 152.925781 55.417969 C 154.367188 56.789062 157.058594 59.46875 160.210938 62.746094 C 164.941406 67.664062 170.773438 73.988281 175.332031 79.492188 C 177.605469 82.242188 179.5625 84.804688 180.847656 86.761719 C 181.492188 87.738281 181.964844 88.566406 182.207031 89.089844 C 182.324219 89.347656 182.386719 89.523438 182.394531 89.554688 L 182.394531 89.558594 L 184.304688 89.042969 L 182.34375 89.042969 C 182.347656 89.40625 182.394531 89.546875 182.394531 89.558594 L 184.304688 89.042969 L 182.34375 89.042969 L 185.925781 89.042969 L 182.472656 88.121094 C 182.363281 88.511719 182.347656 88.824219 182.34375 89.042969 L 185.925781 89.042969 L 182.472656 88.121094 L 186.441406 89.183594 L 183.082031 86.820312 C 182.769531 87.265625 182.574219 87.738281 182.472656 88.121094 L 186.441406 89.183594 L 183.082031 86.820312 L 187.257812 89.757812 L 191.464844 92.652344 C 191.472656 92.640625 191.5625 92.515625 191.703125 92.3125 L 187.496094 89.417969 L 183.382812 92.445312 C 183.40625 92.476562 183.476562 92.578125 183.613281 92.765625 C 185.269531 95.03125 188.433594 95.542969 190.714844 93.90625 C 192.992188 92.277344 193.53125 89.117188 191.917969 86.820312 L 188.554688 89.183594 L 192.527344 88.121094 C 192.425781 87.734375 192.230469 87.261719 191.917969 86.820312 L 188.554688 89.183594 L 192.527344 88.121094 L 189.074219 89.042969 L 192.65625 89.042969 C 192.652344 88.828125 192.628906 88.511719 192.527344 88.121094 L 189.074219 89.042969 L 192.65625 89.042969 L 190.449219 89.042969 L 192.609375 89.535156 C 192.617188 89.488281 192.652344 89.339844 192.65625 89.042969 L 190.449219 89.042969 L 192.609375 89.535156 L 192.09375 89.421875 L 192.601562 89.558594 L 192.609375 89.535156 L 192.09375 89.421875 L 192.601562 89.558594 L 192.617188 89.515625 C 192.660156 89.386719 192.808594 89.03125 193.054688 88.570312 C 193.519531 87.703125 194.316406 86.453125 195.347656 85.027344 C 197.144531 82.53125 199.632812 79.472656 202.363281 76.308594 C 206.464844 71.554688 211.132812 66.539062 215.019531 62.503906 C 216.964844 60.484375 218.714844 58.710938 220.105469 57.339844 C 220.796875 56.652344 221.394531 56.066406 221.875 55.609375 C 222.351562 55.152344 222.722656 54.8125 222.875 54.679688 L 222.878906 54.679688 C 234.875 44.261719 249.3125 37.214844 264.910156 34.703125 C 269.386719 33.980469 273.890625 33.625 278.371094 33.625 C 292.105469 33.625 305.628906 36.964844 317.507812 43.269531 C 329.382812 49.585938 339.609375 58.839844 346.867188 70.730469 L 346.867188 70.726562 L 351.226562 68.074219 " fill-opacity="1" fill-rule="nonzero"/></g></svg>