<svg xmlns="http://www.w3.org/2000/svg" xmlns:xlink="http://www.w3.org/1999/xlink" width="500" zoomAndPan="magnify" viewBox="0 0 375 374.999991" height="500" preserveAspectRatio="xMidYMid meet" version="1.0"><defs><clipPath id="1ce784975e"><path d="M 0 23.4375 L 375 23.4375 L 375 351.9375 L 0 351.9375 Z M 0 23.4375 " clip-rule="nonzero"/></clipPath><clipPath id="b10491b47f"><path d="M 183.460938 32 L 355 32 L 355 166.863281 L 183.460938 166.863281 Z M 183.460938 32 " clip-rule="nonzero"/></clipPath><clipPath id="7eae5980bc"><path d="M 183.75 127.574219 C 185.101562 112.273438 190.199219 94.425781 196.5 83.550781 C 202.726562 72.75 211.5 62.925781 221.25 54.976562 C 231.300781 46.800781 243.824219 39.226562 256.273438 35.625 C 268.800781 32.101562 283.800781 30.898438 296.175781 33.675781 C 308.398438 36.300781 330.523438 45.601562 330.226562 51.300781 C 330 57.75 294.074219 59.699219 285.523438 69.976562 C 278.101562 79.050781 280.351562 106.351562 277.875 106.5 C 276.300781 106.648438 274.125 98.25 273.375 93.976562 C 272.625 89.699219 272.476562 84.976562 273.148438 80.625 C 273.75 76.351562 275.175781 71.851562 277.199219 67.949219 C 279.148438 64.050781 281.925781 60.300781 285.074219 57.226562 C 288.148438 54.148438 291.976562 51.449219 295.949219 49.574219 C 299.851562 47.625 304.351562 46.351562 308.699219 45.75 C 313.050781 45.226562 317.699219 45.375 321.976562 46.273438 C 326.324219 47.101562 330.675781 48.824219 334.5 51 C 338.25 53.175781 341.851562 56.175781 344.773438 59.398438 C 347.625 62.699219 350.101562 66.675781 351.824219 70.726562 C 353.550781 74.773438 354.601562 79.273438 354.898438 83.699219 C 355.199219 88.050781 354.824219 92.699219 353.699219 96.898438 C 352.574219 101.175781 350.699219 105.449219 348.300781 109.125 C 345.898438 112.800781 342.75 116.25 339.300781 118.949219 C 335.925781 121.648438 331.800781 123.898438 327.675781 125.398438 C 323.550781 126.824219 318.976562 127.648438 314.550781 127.726562 C 310.199219 127.800781 305.550781 127.125 301.425781 125.851562 C 297.226562 124.5 293.023438 122.398438 289.5 119.773438 C 285.976562 117.226562 282.75 113.851562 280.199219 110.324219 C 277.648438 106.726562 275.625 102.523438 274.425781 98.324219 C 273.148438 94.125 272.550781 89.476562 272.699219 85.125 C 272.925781 80.699219 273.824219 76.125 275.398438 72 C 276.898438 67.949219 279.300781 63.898438 282.074219 60.523438 C 284.851562 57.148438 288.300781 54.074219 292.050781 51.75 C 295.726562 49.425781 300.074219 47.625 304.351562 46.574219 C 308.625 45.523438 313.273438 45.226562 317.625 45.601562 C 321.976562 46.050781 326.476562 47.175781 330.523438 48.976562 C 334.5 50.773438 338.398438 53.324219 341.625 56.25 C 344.851562 59.175781 348.601562 61.574219 349.875 66.675781 C 352.273438 76.125 351 101.25 342.601562 111.375 C 333.824219 121.875 311.773438 126.074219 297.148438 127.574219 C 284.25 128.925781 265.273438 118.125 259.726562 122.476562 C 256.050781 125.324219 259.050781 134.550781 257.851562 139.050781 C 257.023438 142.425781 255.824219 144.898438 254.398438 147.449219 C 252.898438 150.074219 251.023438 152.625 248.925781 154.800781 C 246.898438 156.976562 244.5 159 241.949219 160.648438 C 239.398438 162.226562 236.625 163.574219 233.773438 164.550781 C 230.925781 165.601562 227.851562 166.199219 224.851562 166.5 C 221.851562 166.726562 218.699219 166.648438 215.699219 166.199219 C 212.773438 165.75 209.773438 164.851562 206.925781 163.726562 C 204.148438 162.523438 201.449219 161.023438 199.050781 159.226562 C 196.648438 157.425781 194.324219 155.25 192.449219 152.925781 C 190.5 150.601562 188.773438 147.976562 187.5 145.273438 C 186.148438 142.574219 185.175781 139.648438 184.574219 136.648438 C 183.898438 133.726562 183.75 127.574219 183.75 127.574219 " clip-rule="nonzero"/></clipPath><clipPath id="068322ca5c"><path d="M 275 47.820312 L 367.304688 47.820312 L 367.304688 158.144531 L 275 158.144531 Z M 275 47.820312 " clip-rule="nonzero"/></clipPath><clipPath id="04ad723bcc"><path d="M 341.851562 61.425781 C 350.773438 73.5 365.101562 96.601562 360.75 102.226562 C 355.648438 108.976562 316.199219 99.824219 306.824219 96.148438 C 303.074219 94.726562 299.773438 92.925781 299.773438 91.050781 C 299.699219 88.726562 306.148438 85.273438 309.75 83.324219 C 313.425781 81.375 317.625 79.949219 321.75 79.273438 C 325.800781 78.601562 330.226562 78.601562 334.351562 79.199219 C 338.476562 79.875 342.675781 81.300781 346.351562 83.175781 C 350.023438 85.125 353.550781 87.824219 356.398438 90.824219 C 359.25 93.824219 361.726562 97.5 363.523438 101.25 C 365.25 105 366.449219 109.273438 366.976562 113.398438 C 367.425781 117.523438 367.199219 121.949219 366.300781 126 C 365.398438 130.050781 363.824219 134.175781 361.648438 137.699219 C 359.550781 141.300781 356.699219 144.675781 353.550781 147.375 C 350.398438 150.074219 346.574219 152.398438 342.75 153.898438 C 338.925781 155.476562 334.574219 156.449219 330.449219 156.675781 C 326.324219 156.898438 321.898438 156.449219 317.851562 155.398438 C 313.875 154.273438 309.824219 152.398438 306.375 150.074219 C 303 147.824219 299.773438 144.75 297.226562 141.449219 C 294.675781 138.148438 292.574219 134.25 291.226562 130.351562 C 289.949219 126.375 289.199219 122.023438 289.199219 117.898438 C 289.125 113.699219 289.875 109.351562 291.148438 105.449219 C 292.5 101.476562 294.523438 97.574219 297.074219 94.273438 C 299.550781 90.976562 302.773438 87.898438 306.148438 85.574219 C 309.601562 83.175781 313.574219 81.300781 317.625 80.175781 C 321.601562 79.050781 326.023438 78.601562 330.148438 78.824219 C 334.273438 78.976562 338.625 79.949219 342.449219 81.449219 C 346.351562 82.949219 350.175781 85.273438 353.324219 87.898438 C 356.476562 90.601562 359.398438 93.976562 361.5 97.5 C 363.675781 101.101562 365.324219 105.148438 366.226562 109.199219 C 367.125 113.25 367.425781 117.675781 366.976562 121.800781 C 366.523438 125.925781 365.398438 130.199219 363.675781 134.023438 C 361.875 137.773438 356.324219 144.300781 356.625 144.449219 C 356.773438 144.601562 363 138.675781 362.625 138.148438 C 361.726562 136.949219 336.074219 160.351562 324 157.875 C 309.523438 154.949219 290.925781 119.175781 284.101562 109.949219 C 281.476562 106.425781 280.425781 105.074219 279.148438 102.375 C 277.800781 99.675781 276.75 96.675781 276.148438 93.75 C 275.476562 90.824219 275.175781 87.75 275.25 84.75 C 275.324219 81.675781 275.773438 78.601562 276.601562 75.75 C 277.425781 72.824219 278.550781 69.898438 280.050781 67.273438 C 281.476562 64.648438 283.351562 62.175781 285.375 59.925781 C 287.476562 57.75 289.875 55.726562 292.351562 54.074219 C 294.898438 52.425781 297.675781 51.074219 300.523438 50.101562 C 303.375 49.125 306.449219 48.449219 309.449219 48.148438 C 312.375 47.851562 315.523438 47.925781 318.523438 48.375 C 321.449219 48.824219 324.523438 49.648438 327.300781 50.773438 C 330.074219 51.976562 332.773438 53.476562 335.25 55.273438 C 337.648438 57 341.851562 61.425781 341.851562 61.425781 " clip-rule="nonzero"/></clipPath><clipPath id="2456d223bb"><path d="M 9.671875 36.671875 L 366.828125 36.671875 L 366.828125 315.957031 L 9.671875 315.957031 Z M 9.671875 36.671875 " clip-rule="nonzero"/></clipPath><clipPath id="2616326910"><path d="M 365.851562 113.699219 C 366.824219 126.675781 366.976562 148.351562 361.875 160.351562 C 357 171.898438 350.550781 181.574219 337.351562 190.351562 C 313.875 205.875 247.726562 230.175781 219.375 224.925781 C 200.773438 221.476562 182.925781 206.023438 177.75 193.050781 C 173.25 181.648438 177.675781 164.625 184.273438 153.375 C 191.324219 141.226562 208.050781 132.074219 221.101562 123.976562 C 233.699219 116.175781 247.273438 109.351562 261.226562 105.449219 C 274.949219 101.699219 294.601562 100.875 303.898438 100.800781 C 308.476562 100.800781 310.800781 101.101562 314.175781 101.773438 C 317.476562 102.523438 320.773438 103.726562 323.851562 105.226562 C 326.925781 106.726562 329.851562 108.675781 332.476562 110.851562 C 335.023438 113.101562 337.425781 115.648438 339.449219 118.425781 C 341.398438 121.199219 343.125 124.273438 344.398438 127.425781 C 345.675781 130.574219 346.648438 133.949219 347.101562 137.324219 C 347.625 140.699219 347.699219 144.226562 347.324219 147.601562 C 347.023438 150.976562 346.273438 154.425781 345.148438 157.648438 C 343.949219 160.875 342.449219 164.023438 340.574219 166.875 C 338.699219 169.726562 336.375 172.425781 333.898438 174.675781 C 331.425781 177 328.574219 179.101562 325.574219 180.75 C 322.574219 182.398438 319.351562 183.75 316.050781 184.574219 C 312.75 185.476562 310.875 185.398438 305.851562 186.074219 C 291.523438 188.023438 245.175781 194.625 222.824219 196.800781 C 207.75 198.226562 197.851562 199.5 184.875 199.273438 C 171.226562 199.050781 156.675781 197.925781 143.023438 195.074219 C 129.523438 192.300781 114 190.273438 103.574219 182.625 C 93.226562 174.976562 85.273438 161.550781 80.398438 149.398438 C 75.675781 137.398438 69.375 114.75 74.625 110.25 C 79.875 105.824219 102.898438 113.925781 111.449219 121.949219 C 120.074219 130.199219 117.074219 150.898438 125.625 159.75 C 133.949219 168.375 150.75 168 161.699219 174.75 C 172.5 181.425781 183.074219 189.976562 190.949219 199.875 C 198.75 209.625 212.175781 228 208.726562 233.476562 C 205.199219 239.175781 169.5 236.398438 168.300781 232.5 C 167.175781 228.523438 190.875 217.574219 201.601562 210 C 212.023438 202.648438 222.75 196.199219 231.898438 187.800781 C 241.125 179.398438 251.324219 166.800781 256.875 159.523438 C 260.023438 155.398438 261 152.699219 263.625 149.324219 C 266.550781 145.648438 269.851562 141.300781 273.675781 138.300781 C 277.5 135.226562 282.074219 132.675781 286.726562 131.023438 C 291.300781 129.300781 296.476562 128.398438 301.351562 128.25 C 306.300781 128.175781 311.476562 128.925781 316.125 130.351562 C 320.851562 131.851562 325.5 134.175781 329.476562 137.023438 C 333.449219 139.949219 337.125 143.699219 339.976562 147.675781 C 342.824219 151.648438 345.148438 156.375 346.574219 161.101562 C 348 165.75 348.675781 171 348.523438 175.875 C 348.300781 180.75 347.324219 185.925781 345.601562 190.5 C 343.875 195.148438 341.25 199.648438 338.175781 203.476562 C 335.101562 207.300781 331.199219 210.75 327 213.375 C 322.875 216 318.074219 218.023438 313.273438 219.226562 C 308.476562 220.351562 303.300781 220.800781 298.425781 220.351562 C 293.476562 219.898438 288.449219 218.625 283.949219 216.675781 C 279.449219 214.726562 275.023438 211.875 271.425781 208.574219 C 267.75 205.273438 264.523438 201.148438 262.125 196.875 C 259.726562 192.601562 257.925781 187.648438 257.023438 182.851562 C 256.125 177.976562 256.050781 172.800781 256.726562 167.925781 C 257.398438 163.050781 258.976562 158.023438 261.148438 153.675781 C 263.398438 149.25 266.476562 145.050781 269.925781 141.601562 C 273.449219 138.148438 277.726562 135.074219 282.074219 132.976562 C 286.5 130.800781 291.523438 129.300781 296.398438 128.625 C 301.273438 128.023438 306.523438 128.175781 311.324219 129.148438 C 316.125 130.050781 321.074219 131.925781 325.273438 134.324219 C 329.550781 136.800781 333.601562 140.101562 336.898438 143.773438 C 340.125 147.449219 342.976562 151.875 344.851562 156.375 C 346.800781 160.875 348 165.976562 348.375 170.925781 C 348.75 175.800781 348.300781 180.976562 347.101562 185.773438 C 345.898438 190.5 343.726562 194.699219 341.101562 199.425781 C 338.023438 205.050781 334.273438 210.601562 329.25 216.976562 C 322.574219 225.675781 312.449219 236.699219 303.449219 245.925781 C 294.601562 255 287.550781 262.726562 275.625 271.726562 C 258.449219 284.851562 227.851562 308.324219 207.675781 313.648438 C 193.726562 317.398438 181.050781 316.199219 169.273438 312.375 C 157.574219 308.550781 145.273438 300.074219 137.25 290.625 C 129.375 281.398438 129.75 264.824219 121.351562 256.648438 C 112.949219 248.476562 97.648438 247.574219 86.625 241.574219 C 75.675781 235.574219 64.949219 228.601562 55.351562 220.574219 C 45.675781 212.550781 35.699219 203.851562 28.726562 193.351562 C 21.523438 182.625 15.976562 169.5 12.976562 156.675781 C 10.050781 143.699219 8.550781 128.925781 11.175781 115.875 C 13.726562 102.675781 20.773438 88.875 28.648438 78 C 36.300781 67.425781 46.574219 58.125 57.300781 51.300781 C 67.800781 44.699219 80.25 38.699219 92.324219 37.425781 C 104.476562 36.148438 119.101562 37.351562 130.050781 43.726562 C 142.425781 50.925781 151.5 69.449219 160.800781 81.523438 C 168.976562 92.175781 173.101562 107.625 183.148438 112.351562 C 193.050781 117.074219 207.824219 111.300781 220.574219 110.101562 C 233.925781 108.898438 247.648438 106.5 261.375 104.925781 C 275.398438 103.425781 294.601562 100.800781 303.898438 100.800781 C 308.476562 100.800781 310.800781 101.101562 314.175781 101.773438 C 317.476562 102.523438 320.773438 103.726562 323.851562 105.226562 C 326.925781 106.726562 329.851562 108.675781 332.476562 110.851562 C 335.023438 113.101562 337.425781 115.648438 339.449219 118.425781 C 341.398438 121.199219 343.125 124.273438 344.398438 127.425781 C 345.675781 130.574219 346.648438 133.949219 347.101562 137.324219 C 347.625 140.699219 347.699219 144.226562 347.324219 147.601562 C 347.023438 150.976562 346.273438 154.425781 345.148438 157.648438 C 343.949219 160.875 342.449219 164.023438 340.574219 166.875 C 338.699219 169.726562 336.375 172.425781 333.898438 174.675781 C 331.425781 177 328.574219 179.101562 325.574219 180.75 C 322.574219 182.398438 319.351562 183.75 316.050781 184.574219 C 312.75 185.476562 309.449219 186.074219 305.851562 186.074219 C 301.949219 186.074219 298.726562 185.550781 293.550781 184.273438 C 284.101562 182.023438 266.773438 177.75 254.476562 171.074219 C 241.273438 163.949219 216.601562 149.925781 217.425781 141.898438 C 218.175781 134.476562 240.675781 126 253.199219 123.824219 C 265.425781 121.726562 286.949219 133.125 291.675781 128.851562 C 294.523438 126.148438 290.625 118.351562 291.074219 114.074219 C 291.375 110.773438 292.125 108.074219 293.175781 105.226562 C 294.226562 102.449219 295.648438 99.675781 297.375 97.199219 C 299.023438 94.726562 301.125 92.398438 303.375 90.375 C 305.550781 88.351562 308.101562 86.550781 310.800781 85.199219 C 313.425781 83.773438 316.351562 82.648438 319.273438 81.898438 C 322.199219 81.148438 325.273438 80.773438 328.273438 80.773438 C 331.273438 80.773438 334.351562 81.074219 337.273438 81.824219 C 340.199219 82.5 343.125 83.625 345.824219 84.976562 C 348.449219 86.398438 351.074219 88.125 353.324219 90.148438 C 355.574219 92.101562 357.675781 94.425781 359.398438 96.898438 C 361.125 99.375 362.550781 102.074219 363.601562 104.925781 C 364.726562 107.699219 365.851562 113.699219 365.851562 113.699219 " clip-rule="nonzero"/></clipPath><clipPath id="6e6ffe0fb6"><path d="M 151.140625 79.515625 L 250.183594 79.515625 L 250.183594 187.15625 L 151.140625 187.15625 Z M 151.140625 79.515625 " clip-rule="nonzero"/></clipPath><clipPath id="529d5f77d6"><path d="M 165.898438 119.476562 C 178.648438 108.074219 198.300781 83.851562 197.925781 83.550781 C 197.550781 83.175781 175.050781 108.75 173.851562 107.925781 C 173.101562 107.476562 176.851562 99.976562 179.175781 96.601562 C 181.5 93.148438 184.574219 90 187.875 87.449219 C 191.175781 84.976562 195.074219 82.949219 198.976562 81.675781 C 202.875 80.324219 207.300781 79.648438 211.425781 79.648438 C 215.550781 79.726562 219.898438 80.398438 223.800781 81.75 C 227.699219 83.101562 231.601562 85.199219 234.898438 87.675781 C 238.125 90.226562 241.199219 93.449219 243.449219 96.898438 C 245.773438 100.273438 247.574219 104.324219 248.699219 108.300781 C 249.75 112.273438 250.199219 116.699219 249.976562 120.824219 C 249.75 124.949219 248.773438 129.226562 247.199219 133.050781 C 245.699219 136.949219 243.375 140.699219 240.675781 143.851562 C 237.976562 146.925781 234.601562 149.773438 231.074219 151.875 C 227.550781 154.050781 223.425781 155.625 219.375 156.523438 C 215.324219 157.351562 210.898438 157.574219 206.851562 157.125 C 202.726562 156.675781 198.449219 155.476562 194.699219 153.675781 C 190.949219 151.949219 187.351562 149.476562 184.351562 146.625 C 181.351562 143.699219 178.726562 140.175781 176.773438 136.574219 C 174.898438 132.898438 173.476562 128.699219 172.875 124.648438 C 172.199219 120.523438 172.199219 116.101562 172.875 112.050781 C 173.625 108 175.050781 103.800781 177 100.125 C 178.949219 96.523438 181.648438 93 184.648438 90.148438 C 187.648438 87.375 191.324219 84.898438 195.074219 83.175781 C 198.824219 81.449219 203.101562 80.324219 207.226562 79.875 C 211.351562 79.425781 215.699219 79.726562 219.75 80.625 C 223.800781 81.523438 227.851562 83.175781 231.375 85.351562 C 234.976562 87.449219 238.273438 90.375 240.976562 93.523438 C 243.601562 96.675781 245.851562 100.5 247.351562 104.324219 C 248.851562 108.148438 249.824219 112.5 249.976562 116.625 C 250.199219 120.75 250.425781 123.898438 248.625 129.074219 C 244.726562 139.800781 228.148438 165 219.074219 174.148438 C 213.898438 179.324219 208.648438 181.875 204.226562 183.976562 C 201 185.398438 198.449219 186.074219 195.523438 186.601562 C 192.523438 187.125 189.375 187.273438 186.375 187.050781 C 183.375 186.898438 180.300781 186.300781 177.449219 185.398438 C 174.601562 184.425781 171.75 183.148438 169.199219 181.574219 C 166.648438 180 164.175781 178.050781 162.074219 175.875 C 159.976562 173.773438 158.023438 171.300781 156.523438 168.675781 C 154.949219 166.125 153.675781 163.273438 152.851562 160.351562 C 151.949219 157.5 151.425781 154.425781 151.273438 151.425781 C 151.125 148.425781 151.273438 145.273438 151.875 142.351562 C 152.398438 139.351562 153.375 136.425781 154.648438 133.648438 C 155.925781 130.949219 157.5 128.25 159.375 125.925781 C 161.25 123.523438 165.898438 119.476562 165.898438 119.476562 " clip-rule="nonzero"/></clipPath><clipPath id="7471466e0c"><path d="M 44.421875 30.320312 L 211.238281 30.320312 L 211.238281 175.328125 L 44.421875 175.328125 Z M 44.421875 30.320312 " clip-rule="nonzero"/></clipPath><clipPath id="9a47aeab16"><path d="M 149.324219 166.425781 C 138.148438 155.851562 132.824219 137.324219 123.824219 129 C 114.601562 120.523438 88.199219 116.625 88.351562 111.675781 C 88.425781 107.550781 112.800781 100.5 113.101562 101.023438 C 113.324219 101.476562 106.050781 106.574219 102.074219 108.375 C 98.101562 110.175781 93.675781 111.375 89.324219 111.824219 C 84.976562 112.199219 80.398438 111.898438 76.125 110.925781 C 71.925781 110.023438 67.648438 108.226562 63.898438 105.976562 C 60.226562 103.726562 56.699219 100.648438 53.925781 97.351562 C 51.148438 93.976562 48.75 90 47.25 85.949219 C 45.675781 81.898438 44.699219 77.324219 44.476562 73.050781 C 44.324219 68.699219 44.851562 64.050781 46.050781 59.925781 C 47.25 55.726562 49.199219 51.523438 51.675781 47.925781 C 54.148438 44.398438 57.375 41.023438 60.824219 38.476562 C 64.351562 35.851562 68.476562 33.75 72.601562 32.398438 C 76.726562 31.050781 81.300781 30.300781 85.648438 30.375 C 90 30.375 94.574219 31.199219 98.625 32.625 C 102.75 34.050781 106.800781 36.226562 110.25 38.925781 C 113.699219 41.550781 116.851562 44.925781 119.25 48.601562 C 121.648438 52.199219 123.601562 56.398438 124.726562 60.601562 C 125.851562 64.800781 126.300781 69.449219 126 73.726562 C 125.773438 78.074219 124.726562 82.574219 123.074219 86.625 C 121.425781 90.675781 119.023438 94.574219 116.175781 97.875 C 113.324219 101.175781 109.726562 104.101562 105.976562 106.351562 C 102.226562 108.523438 97.949219 110.25 93.675781 111.148438 C 89.398438 112.050781 84.824219 112.199219 80.476562 111.75 C 76.199219 111.226562 71.699219 109.949219 67.800781 108.074219 C 63.898438 106.199219 60.074219 103.574219 56.925781 100.574219 C 53.773438 97.5 51 93.824219 49.050781 90 C 47.023438 86.101562 45.601562 81.675781 44.925781 77.398438 C 44.25 73.125 44.324219 68.476562 45.074219 64.199219 C 45.824219 59.925781 47.324219 55.574219 49.351562 51.75 C 51.449219 47.925781 52.800781 44.101562 57.449219 41.25 C 66.75 35.699219 93.449219 31.726562 108.976562 32.773438 C 122.175781 33.675781 134.324219 37.875 144.898438 44.023438 C 155.550781 50.175781 164.851562 59.925781 172.648438 69.75 C 180.523438 79.726562 185.699219 95.398438 191.925781 103.425781 C 195.976562 108.675781 201.074219 111.375 203.925781 115.125 C 206.023438 117.898438 207.226562 120.300781 208.351562 123.074219 C 209.550781 125.851562 210.375 128.851562 210.824219 131.851562 C 211.273438 134.773438 211.351562 137.925781 211.050781 140.925781 C 210.824219 143.925781 210.148438 147 209.175781 149.773438 C 208.199219 152.625 206.773438 155.476562 205.199219 157.949219 C 203.550781 160.5 201.523438 162.898438 199.351562 165 C 197.175781 167.023438 194.625 168.898438 192 170.324219 C 189.375 171.824219 186.523438 173.023438 183.601562 173.851562 C 180.675781 174.601562 177.601562 175.125 174.601562 175.199219 C 171.601562 175.273438 168.449219 174.976562 165.523438 174.375 C 162.601562 173.699219 159.675781 172.726562 156.976562 171.375 C 154.199219 170.023438 149.324219 166.425781 149.324219 166.425781 " clip-rule="nonzero"/></clipPath><clipPath id="2e96451b3e"><path d="M 6.171875 33.292969 L 122.976562 33.292969 L 122.976562 161.589844 L 6.171875 161.589844 Z M 6.171875 33.292969 " clip-rule="nonzero"/></clipPath><clipPath id="442411ba8c"><path d="M 86.773438 109.125 C 79.425781 107.699219 75.898438 93.824219 76.574219 93.523438 C 77.101562 93.226562 82.125 100.199219 84 103.949219 C 85.800781 107.773438 87.148438 112.125 87.675781 116.324219 C 88.199219 120.449219 88.050781 124.949219 87.226562 129.148438 C 86.398438 133.273438 84.824219 137.476562 82.726562 141.148438 C 80.625 144.824219 77.773438 148.351562 74.625 151.125 C 71.476562 153.898438 67.648438 156.300781 63.75 157.949219 C 59.851562 159.601562 55.5 160.648438 51.226562 161.023438 C 47.023438 161.324219 42.523438 160.949219 38.476562 159.898438 C 34.351562 158.851562 30.226562 157.050781 26.699219 154.726562 C 23.175781 152.398438 19.800781 149.398438 17.175781 146.101562 C 14.550781 142.726562 12.375 138.824219 10.949219 134.851562 C 9.523438 130.875 8.699219 126.449219 8.625 122.175781 C 8.476562 117.976562 9.148438 113.550781 10.425781 109.5 C 11.699219 105.449219 13.726562 101.398438 16.199219 98.023438 C 18.675781 94.574219 21.898438 91.425781 25.351562 89.023438 C 28.800781 86.550781 32.851562 84.601562 36.898438 83.324219 C 40.949219 82.125 45.375 81.601562 49.648438 81.675781 C 53.851562 81.824219 58.273438 82.726562 62.25 84.226562 C 66.226562 85.726562 70.125 87.976562 73.351562 90.601562 C 76.648438 93.300781 79.648438 96.675781 81.898438 100.199219 C 84.148438 103.800781 85.875 107.925781 86.925781 112.050781 C 87.898438 116.175781 88.199219 120.675781 87.824219 124.875 C 87.449219 129.074219 86.324219 133.425781 84.675781 137.324219 C 82.949219 141.226562 80.550781 144.976562 77.699219 148.125 C 74.851562 151.273438 71.324219 154.050781 67.574219 156.074219 C 63.898438 158.175781 59.699219 159.675781 55.5 160.425781 C 51.375 161.25 46.875 161.324219 42.675781 160.726562 C 38.476562 160.125 34.199219 158.773438 30.375 156.824219 C 26.625 154.949219 23.175781 153.449219 20.023438 149.324219 C 14.550781 142.050781 6.976562 124.875 6.300781 112.5 C 5.699219 100.351562 9.675781 86.773438 15.601562 75.75 C 21.75 64.273438 32.25 52.5 43.125 45.449219 C 53.550781 38.773438 69.75 35.101562 78.976562 33.898438 C 84.601562 33.148438 88.800781 33.824219 92.851562 34.574219 C 96.074219 35.175781 98.699219 36.148438 101.398438 37.425781 C 104.175781 38.699219 106.800781 40.425781 109.125 42.300781 C 111.449219 44.175781 113.625 46.425781 115.425781 48.824219 C 117.226562 51.226562 118.800781 53.925781 119.925781 56.699219 C 121.125 59.476562 121.949219 62.476562 122.476562 65.476562 C 122.925781 68.398438 123.074219 71.550781 122.851562 74.550781 C 122.550781 77.476562 121.949219 80.550781 120.976562 83.398438 C 120.074219 86.25 118.726562 89.101562 117.074219 91.648438 C 115.5 94.125 113.550781 96.601562 111.375 98.625 C 109.199219 100.726562 106.726562 102.601562 104.101562 104.101562 C 101.476562 105.601562 98.625 106.800781 95.773438 107.699219 C 92.851562 108.523438 86.773438 109.125 86.773438 109.125 " clip-rule="nonzero"/></clipPath><clipPath id="6301d91b47"><path d="M 52.015625 158.605469 L 230.332031 158.605469 L 230.332031 329.347656 L 52.015625 329.347656 Z M 52.015625 158.605469 " clip-rule="nonzero"/></clipPath><clipPath id="3e76287fc5"><path d="M 128.175781 195 C 131.476562 204.375 151.125 211.5 161.851562 218.324219 C 172.425781 225.074219 182.699219 232.273438 192.375 240.226562 C 202.199219 248.25 222.300781 261.449219 220.351562 266.398438 C 217.800781 272.851562 156.300781 271.273438 153.976562 266.101562 C 152.925781 263.773438 159.375 258.898438 162.75 256.050781 C 166.199219 253.273438 170.25 250.949219 174.300781 249.375 C 178.425781 247.875 183 246.898438 187.425781 246.75 C 191.773438 246.601562 196.425781 247.199219 200.625 248.476562 C 204.824219 249.675781 209.023438 251.699219 212.625 254.25 C 216.226562 256.800781 219.523438 260.023438 222.148438 263.625 C 224.773438 267.148438 226.875 271.273438 228.148438 275.476562 C 229.5 279.675781 230.175781 284.324219 230.101562 288.675781 C 230.023438 293.023438 229.199219 297.675781 227.699219 301.800781 C 226.273438 305.925781 224.023438 310.050781 221.25 313.5 C 218.550781 316.875 215.101562 320.101562 211.425781 322.5 C 207.75 324.824219 203.476562 326.773438 199.199219 327.824219 C 195 328.949219 190.351562 329.398438 185.925781 329.023438 C 181.574219 328.726562 177 327.675781 172.949219 325.949219 C 168.898438 324.300781 165 321.75 161.699219 318.898438 C 158.398438 315.976562 155.398438 312.375 153.226562 308.550781 C 151.050781 304.800781 149.398438 300.375 148.5 296.101562 C 147.675781 291.824219 147.449219 287.101562 148.050781 282.75 C 148.574219 278.398438 149.925781 273.976562 151.800781 270 C 153.75 266.023438 156.449219 262.199219 159.523438 259.125 C 162.601562 255.976562 166.351562 253.199219 170.25 251.175781 C 174.148438 249.226562 178.648438 247.800781 182.925781 247.199219 C 187.273438 246.523438 192 246.601562 196.273438 247.425781 C 200.625 248.175781 205.050781 249.75 208.875 251.925781 C 212.699219 254.023438 216.375 256.875 219.300781 260.175781 C 222.300781 263.398438 224.851562 267.300781 226.574219 271.351562 C 228.375 275.324219 229.574219 279.824219 229.949219 284.25 C 230.324219 288.601562 230.023438 293.25 228.976562 297.523438 C 228 301.800781 228.074219 306.75 223.800781 309.824219 C 214.125 316.875 172.574219 320.773438 154.949219 315.300781 C 141.523438 311.175781 134.023438 298.949219 123.976562 290.476562 C 114.148438 282.148438 104.925781 273.601562 95.476562 264.976562 C 85.949219 256.425781 74.175781 249.375 67.125 238.949219 C 59.925781 228.449219 54.375 211.574219 52.949219 202.125 C 52.050781 196.648438 52.875 192.601562 53.699219 188.625 C 54.300781 185.398438 55.273438 182.699219 56.625 180 C 57.898438 177.300781 59.550781 174.675781 61.5 172.351562 C 63.375 170.101562 65.625 167.925781 68.023438 166.125 C 70.5 164.324219 73.199219 162.824219 75.976562 161.625 C 78.75 160.5 81.675781 159.601562 84.675781 159.148438 C 87.675781 158.699219 90.75 158.550781 93.75 158.851562 C 96.75 159.074219 99.824219 159.75 102.601562 160.726562 C 105.449219 161.625 108.300781 162.976562 110.851562 164.625 C 113.324219 166.273438 115.726562 168.226562 117.824219 170.398438 C 119.925781 172.574219 121.726562 175.050781 123.226562 177.675781 C 124.726562 180.300781 125.925781 183.148438 126.75 186.074219 C 127.574219 188.925781 128.175781 195 128.175781 195 " clip-rule="nonzero"/></clipPath><clipPath id="e6780a98c2"><path d="M 161.832031 307 L 210 307 L 210 340.667969 L 161.832031 340.667969 Z M 161.832031 307 " clip-rule="nonzero"/></clipPath><clipPath id="ae48bf813d"><path d="M 176.925781 311.476562 C 179.925781 315.898438 188.773438 320.773438 191.476562 324.523438 C 193.351562 327.074219 194.925781 331.875 194.476562 332.25 C 193.875 332.625 186.226562 326.398438 186.523438 324.300781 C 186.75 322.425781 193.351562 319.351562 193.800781 319.726562 C 194.023438 319.949219 192.449219 322.425781 192.449219 322.425781 C 192.449219 322.425781 192.976562 320.699219 193.648438 319.875 C 194.625 318.675781 196.425781 316.949219 198.148438 316.425781 C 199.800781 315.824219 202.273438 315.976562 203.773438 316.351562 C 204.824219 316.574219 205.5 316.949219 206.324219 317.699219 C 207.449219 318.675781 209.023438 320.625 209.476562 322.351562 C 210 324 209.625 326.476562 209.25 327.976562 C 208.949219 329.023438 208.5 329.625 207.75 330.449219 C 206.699219 331.5 204.675781 332.925781 202.949219 333.375 C 201.226562 333.75 198.976562 333.523438 197.324219 332.773438 C 195.75 332.023438 194.101562 330.523438 193.199219 328.949219 C 192.375 327.375 192.148438 324.898438 192.300781 323.398438 C 192.375 322.273438 192.75 321.523438 193.199219 320.699219 C 193.574219 319.875 194.023438 319.050781 194.851562 318.375 C 196.050781 317.398438 198.226562 316.199219 199.949219 315.976562 C 201.75 315.75 203.925781 316.273438 205.5 317.175781 C 207 318.074219 208.5 319.800781 209.175781 321.449219 C 209.851562 323.101562 210.300781 325.050781 209.550781 327.074219 C 208.199219 330.300781 201.75 335.25 198.148438 337.5 C 195.449219 339.148438 193.050781 340.199219 190.425781 340.5 C 187.800781 340.726562 185.175781 340.425781 182.324219 339.148438 C 178.125 337.125 172.199219 330.75 168.824219 327.226562 C 166.5 324.824219 164.699219 322.574219 163.574219 320.550781 C 162.675781 319.125 162.074219 318 161.925781 316.574219 C 161.773438 314.925781 161.925781 312.523438 162.824219 311.023438 C 163.648438 309.449219 165.523438 307.949219 167.175781 307.425781 C 168.824219 306.824219 171.148438 306.898438 172.800781 307.574219 C 174.449219 308.25 176.925781 311.476562 176.925781 311.476562 " clip-rule="nonzero"/></clipPath><clipPath id="88a9923db2"><path d="M 189.34375 76.84375 L 222 76.84375 L 222 101.164062 L 189.34375 101.164062 Z M 189.34375 76.84375 " clip-rule="nonzero"/></clipPath><clipPath id="bc8574032a"><path d="M 207.898438 95.175781 C 205.949219 92.398438 206.476562 89.625 206.550781 89.625 C 206.625 89.625 207.148438 93.449219 206.699219 95.101562 C 206.175781 96.75 204.898438 98.476562 203.476562 99.523438 C 202.125 100.5 200.023438 101.175781 198.300781 101.101562 C 196.574219 101.023438 194.550781 100.273438 193.199219 99.226562 C 191.851562 98.175781 190.726562 96.300781 190.273438 94.648438 C 189.824219 93 190.050781 90.824219 190.726562 89.25 C 191.398438 87.675781 193.125 86.023438 194.324219 85.199219 C 195.226562 84.601562 195.898438 84.375 196.949219 84.226562 C 198.375 84.074219 201 84.449219 202.351562 84.976562 C 203.324219 85.351562 203.925781 85.949219 204.523438 86.550781 C 205.199219 87.226562 205.800781 87.824219 206.175781 88.800781 C 206.699219 90.148438 207.226562 92.550781 206.925781 94.199219 C 206.550781 95.851562 205.199219 97.875 204.226562 98.925781 C 203.476562 99.675781 202.875 100.050781 201.898438 100.425781 C 200.476562 100.875 198.148438 101.25 196.5 100.875 C 194.773438 100.425781 192.898438 99 191.925781 97.949219 C 191.175781 97.125 190.875 96.601562 190.574219 95.550781 C 189.976562 93.675781 188.925781 90.148438 189.523438 87.675781 C 190.199219 85.125 192.449219 82.199219 194.625 80.398438 C 196.726562 78.675781 199.726562 77.398438 202.425781 77.023438 C 205.199219 76.648438 208.425781 77.25 211.050781 78.226562 C 213.75 79.199219 216.601562 81 218.398438 82.800781 C 219.976562 84.375 221.25 86.476562 221.699219 88.125 C 222.074219 89.476562 222 90.75 221.699219 91.949219 C 221.398438 93.148438 220.800781 94.351562 219.898438 95.324219 C 218.699219 96.449219 216.449219 97.648438 214.800781 97.875 C 213.523438 98.101562 212.175781 97.875 211.050781 97.425781 C 209.925781 96.976562 207.898438 95.175781 207.898438 95.175781 " clip-rule="nonzero"/></clipPath></defs><g clip-path="url(#1ce784975e)"><path fill="#794500" d="M 351.226562 68.074219 L 355.582031 65.410156 C 347.324219 51.878906 335.683594 41.359375 322.292969 34.25 C 308.902344 27.144531 293.757812 23.414062 278.371094 23.414062 C 273.355469 23.414062 268.304688 23.808594 263.289062 24.621094 C 245.695312 27.457031 229.515625 35.386719 216.1875 46.96875 C 215.847656 47.253906 215.488281 47.585938 215.046875 48.011719 C 213.398438 49.574219 210.667969 52.296875 207.429688 55.667969 C 202.570312 60.71875 196.621094 67.15625 191.796875 72.988281 C 189.382812 75.914062 187.246094 78.671875 185.613281 81.15625 C 184.796875 82.40625 184.101562 83.574219 183.539062 84.773438 C 183.261719 85.371094 183.011719 85.980469 182.8125 86.660156 C 182.613281 87.339844 182.449219 88.085938 182.445312 89.042969 C 182.445312 89.554688 182.492188 90.128906 182.660156 90.761719 C 182.832031 91.382812 183.121094 92.066406 183.5625 92.691406 L 187.742188 89.757812 L 191.863281 86.75 C 191.84375 86.71875 191.757812 86.59375 191.609375 86.394531 C 190.628906 85.058594 189.070312 84.289062 187.417969 84.316406 C 185.761719 84.34375 184.226562 85.164062 183.292969 86.527344 C 183.273438 86.554688 183.195312 86.660156 183.050781 86.859375 C 181.460938 89.171875 182.042969 92.347656 184.339844 93.945312 C 186.640625 95.550781 189.820312 94.988281 191.433594 92.695312 C 191.878906 92.066406 192.167969 91.382812 192.335938 90.761719 C 192.503906 90.128906 192.554688 89.554688 192.554688 89.042969 C 192.539062 87.6875 192.234375 86.734375 191.90625 85.832031 C 191.589844 84.992188 191.207031 84.214844 190.765625 83.421875 C 189.9375 81.9375 188.910156 80.394531 187.707031 78.738281 C 185.601562 75.855469 182.96875 72.640625 180.125 69.363281 C 175.871094 64.441406 171.15625 59.390625 167.222656 55.304688 C 165.253906 53.261719 163.476562 51.464844 162.042969 50.046875 C 161.328125 49.332031 160.695312 48.722656 160.164062 48.210938 C 159.625 47.699219 159.199219 47.300781 158.816406 46.96875 C 145.476562 35.386719 129.304688 27.457031 111.710938 24.621094 C 106.691406 23.808594 101.644531 23.414062 96.628906 23.414062 C 81.246094 23.414062 66.101562 27.144531 52.707031 34.25 C 39.316406 41.359375 27.675781 51.878906 19.417969 65.410156 C 14.878906 72.851562 10.226562 82.390625 6.640625 92.382812 C 4.84375 97.371094 3.324219 102.476562 2.242188 107.5 C 1.164062 112.527344 0.511719 117.460938 0.511719 122.167969 C 0.507812 139.171875 4.207031 154.933594 10.386719 169.519531 C 19.65625 191.410156 34.4375 210.671875 50.804688 228.207031 C 67.179688 245.734375 85.1875 261.554688 101.082031 276.414062 C 101.484375 276.792969 102.066406 277.3125 102.863281 278.015625 C 105.832031 280.648438 111.71875 285.753906 119.070312 292.144531 C 130.09375 301.722656 144.402344 314.160156 156.90625 325.234375 C 163.160156 330.777344 168.96875 335.972656 173.679688 340.296875 C 176.03125 342.453125 178.109375 344.394531 179.828125 346.039062 C 181.539062 347.675781 182.902344 349.03125 183.761719 349.957031 C 184.726562 350.996094 186.074219 351.582031 187.496094 351.582031 C 188.921875 351.582031 190.265625 350.996094 191.234375 349.957031 C 192.460938 348.636719 194.675781 346.46875 197.527344 343.800781 C 202.53125 339.121094 209.523438 332.828125 217.253906 325.976562 C 228.851562 315.691406 242.113281 304.148438 252.910156 294.765625 C 258.308594 290.070312 263.089844 285.921875 266.746094 282.738281 C 268.578125 281.140625 270.125 279.789062 271.328125 278.730469 C 272.542969 277.664062 273.390625 276.910156 273.917969 276.414062 C 295.105469 256.597656 320.054688 235.09375 339.882812 210.0625 C 349.796875 197.539062 358.4375 184.109375 364.613281 169.519531 C 370.792969 154.933594 374.492188 139.171875 374.488281 122.167969 C 374.488281 117.460938 373.835938 112.527344 372.753906 107.5 C 371.128906 99.96875 368.523438 92.246094 365.488281 85 C 362.449219 77.75 358.984375 70.988281 355.585938 65.414062 L 355.582031 65.410156 L 351.226562 68.074219 L 346.867188 70.726562 C 351 77.5 355.421875 86.550781 358.75 95.828125 C 360.414062 100.464844 361.808594 105.164062 362.773438 109.652344 C 363.746094 114.136719 364.28125 118.414062 364.277344 122.167969 C 364.273438 137.6875 360.929688 152.023438 355.210938 165.542969 C 346.636719 185.804688 332.648438 204.191406 316.726562 221.234375 C 300.8125 238.28125 283 253.957031 266.945312 268.953125 C 266.6875 269.191406 266.128906 269.699219 265.363281 270.375 C 262.472656 272.933594 256.574219 278.050781 249.226562 284.4375 C 238.199219 294.019531 223.875 306.46875 211.316406 317.59375 C 205.035156 323.15625 199.195312 328.382812 194.414062 332.769531 C 192.023438 334.964844 189.898438 336.945312 188.105469 338.660156 C 186.308594 340.378906 184.859375 341.820312 183.761719 343 L 187.496094 346.476562 L 191.234375 343 C 189.679688 341.328125 187.382812 339.101562 184.445312 336.347656 C 179.316406 331.546875 172.277344 325.21875 164.511719 318.332031 C 152.867188 308.007812 139.585938 296.445312 128.78125 287.058594 C 123.382812 282.363281 118.601562 278.210938 114.957031 275.039062 C 113.136719 273.453125 111.597656 272.109375 110.414062 271.066406 C 109.242188 270.03125 108.394531 269.273438 108.054688 268.953125 C 86.648438 248.964844 62.117188 227.734375 43.121094 203.722656 C 33.617188 191.726562 25.507812 179.050781 19.789062 165.542969 C 14.066406 152.023438 10.726562 137.6875 10.722656 122.167969 C 10.71875 118.414062 11.257812 114.136719 12.222656 109.652344 C 13.671875 102.921875 16.089844 95.71875 18.929688 88.941406 C 21.765625 82.171875 25.03125 75.804688 28.132812 70.730469 C 35.390625 58.839844 45.617188 49.582031 57.496094 43.269531 C 69.371094 36.964844 82.894531 33.625 96.628906 33.625 C 101.105469 33.625 105.613281 33.980469 110.082031 34.703125 C 125.6875 37.214844 140.117188 44.257812 152.125 54.679688 C 152.253906 54.789062 152.550781 55.058594 152.925781 55.417969 C 154.367188 56.789062 157.058594 59.46875 160.210938 62.746094 C 164.941406 67.664062 170.773438 73.988281 175.332031 79.492188 C 177.605469 82.242188 179.5625 84.804688 180.847656 86.761719 C 181.492188 87.738281 181.964844 88.566406 182.207031 89.089844 C 182.324219 89.347656 182.386719 89.523438 182.394531 89.554688 L 182.394531 89.558594 L 184.304688 89.042969 L 182.34375 89.042969 C 182.347656 89.40625 182.394531 89.546875 182.394531 89.558594 L 184.304688 89.042969 L 182.34375 89.042969 L 185.925781 89.042969 L 182.472656 88.121094 C 182.363281 88.511719 182.347656 88.824219 182.34375 89.042969 L 185.925781 89.042969 L 182.472656 88.121094 L 186.441406 89.183594 L 183.082031 86.820312 C 182.769531 87.265625 182.574219 87.738281 182.472656 88.121094 L 186.441406 89.183594 L 183.082031 86.820312 L 187.257812 89.757812 L 191.464844 92.652344 C 191.472656 92.640625 191.5625 92.515625 191.703125 92.3125 L 187.496094 89.417969 L 183.382812 92.445312 C 183.40625 92.476562 183.476562 92.578125 183.613281 92.765625 C 185.269531 95.03125 188.433594 95.542969 190.714844 93.90625 C 192.992188 92.277344 193.53125 89.117188 191.917969 86.820312 L 188.554688 89.183594 L 192.527344 88.121094 C 192.425781 87.734375 192.230469 87.261719 191.917969 86.820312 L 188.554688 89.183594 L 192.527344 88.121094 L 189.074219 89.042969 L 192.65625 89.042969 C 192.652344 88.828125 192.628906 88.511719 192.527344 88.121094 L 189.074219 89.042969 L 192.65625 89.042969 L 190.449219 89.042969 L 192.609375 89.535156 C 192.617188 89.488281 192.652344 89.339844 192.65625 89.042969 L 190.449219 89.042969 L 192.609375 89.535156 L 192.09375 89.421875 L 192.601562 89.558594 L 192.609375 89.535156 L 192.09375 89.421875 L 192.601562 89.558594 L 192.617188 89.515625 C 192.660156 89.386719 192.808594 89.03125 193.054688 88.570312 C 193.519531 87.703125 194.316406 86.453125 195.347656 85.027344 C 197.144531 82.53125 199.632812 79.472656 202.363281 76.308594 C 206.464844 71.554688 211.132812 66.539062 215.019531 62.503906 C 216.964844 60.484375 218.714844 58.710938 220.105469 57.339844 C 220.796875 56.652344 221.394531 56.066406 221.875 55.609375 C 222.351562 55.152344 222.722656 54.8125 222.875 54.679688 L 222.878906 54.679688 C 234.875 44.261719 249.3125 37.214844 264.910156 34.703125 C 269.386719 33.980469 273.890625 33.625 278.371094 33.625 C 292.105469 33.625 305.628906 36.964844 317.507812 43.269531 C 329.382812 49.585938 339.609375 58.839844 346.867188 70.730469 L 346.867188 70.726562 L 351.226562 68.074219 " fill-opacity="1" fill-rule="nonzero"/></g><g clip-path="url(#b10491b47f)"><g clip-path="url(#7eae5980bc)"><path fill="#794500" d="M 180.75 30.675781 L 358.171875 30.675781 L 358.171875 169.574219 L 180.75 169.574219 Z M 180.75 30.675781 " fill-opacity="1" fill-rule="nonzero"/></g></g><g clip-path="url(#068322ca5c)"><g clip-path="url(#04ad723bcc)"><path fill="#794500" d="M 272.25 45.148438 L 369.976562 45.148438 L 369.976562 160.816406 L 272.25 160.816406 Z M 272.25 45.148438 " fill-opacity="1" fill-rule="nonzero"/></g></g><g clip-path="url(#2456d223bb)"><g clip-path="url(#2616326910)"><path fill="#794500" d="M 8.175781 34.425781 L 369.824219 34.425781 L 369.824219 316.707031 L 8.175781 316.707031 Z M 8.175781 34.425781 " fill-opacity="1" fill-rule="nonzero"/></g></g><g clip-path="url(#6e6ffe0fb6)"><g clip-path="url(#529d5f77d6)"><path fill="#794500" d="M 148.273438 76.648438 L 253.050781 76.648438 L 253.050781 190.019531 L 148.273438 190.019531 Z M 148.273438 76.648438 " fill-opacity="1" fill-rule="nonzero"/></g></g><g clip-path="url(#7471466e0c)"><g clip-path="url(#9a47aeab16)"><path fill="#794500" d="M 41.476562 27.375 L 214.183594 27.375 L 214.183594 178.273438 L 41.476562 178.273438 Z M 41.476562 27.375 " fill-opacity="1" fill-rule="nonzero"/></g></g><g clip-path="url(#2e96451b3e)"><g clip-path="url(#442411ba8c)"><path fill="#794500" d="M 3.300781 30.898438 L 125.851562 30.898438 L 125.851562 163.980469 L 3.300781 163.980469 Z M 3.300781 30.898438 " fill-opacity="1" fill-rule="nonzero"/></g></g><g clip-path="url(#6301d91b47)"><g clip-path="url(#3e76287fc5)"><path fill="#794500" d="M 49.949219 155.851562 L 233.085938 155.851562 L 233.085938 332.101562 L 49.949219 332.101562 Z M 49.949219 155.851562 " fill-opacity="1" fill-rule="nonzero"/></g></g><g clip-path="url(#e6780a98c2)"><g clip-path="url(#ae48bf813d)"><path fill="#794500" d="M 158.925781 304.425781 L 212.601562 304.425781 L 212.601562 343.574219 L 158.925781 343.574219 Z M 158.925781 304.425781 " fill-opacity="1" fill-rule="nonzero"/></g></g><g clip-path="url(#88a9923db2)"><g clip-path="url(#bc8574032a)"><path fill="#794500" d="M 186.523438 74.023438 L 224.824219 74.023438 L 224.824219 104.101562 L 186.523438 104.101562 Z M 186.523438 74.023438 " fill-opacity="1" fill-rule="nonzero"/></g></g></svg>