<svg xmlns="http://www.w3.org/2000/svg" xmlns:xlink="http://www.w3.org/1999/xlink" width="500" zoomAndPan="magnify" viewBox="0 0 375 374.999991" height="500" preserveAspectRatio="xMidYMid meet" version="1.0"><path fill="#994636" d="M 374.003906 186.003906 C 374.003906 289.246094 290.242188 373.003906 187 373.003906 C 83.761719 373.003906 0 289.246094 0 186.003906 C 0 82.765625 83.761719 -0.996094 187 -0.996094 C 290.242188 -0.996094 374.003906 82.765625 374.003906 186.003906 Z M 14.960938 186.003906 C 14.960938 280.984375 92.019531 358.046875 187 358.046875 C 281.980469 358.046875 359.042969 280.984375 359.042969 186.003906 C 359.042969 91.023438 281.980469 13.960938 187 13.960938 C 92.019531 13.960938 14.960938 91.023438 14.960938 186.003906 Z M 82.28125 193.484375 C 78.152344 193.484375 74.800781 190.132812 74.800781 186.003906 C 74.800781 181.875 78.152344 178.523438 82.28125 178.523438 L 291.722656 178.523438 C 295.851562 178.523438 299.203125 181.875 299.203125 186.003906 C 299.203125 190.132812 295.851562 193.484375 291.722656 193.484375 Z M 82.28125 193.484375 " fill-opacity="1" fill-rule="nonzero"/></svg>